<?xml version="1.0" encoding="utf-8"?>
<!-- Generator: Adobe Illustrator 18.1.1, SVG Export Plug-In . SVG Version: 6.00 Build 0)  -->
<svg version="1.1" id="Layer_1" xmlns="http://www.w3.org/2000/svg" xmlns:xlink="http://www.w3.org/1999/xlink" x="0px" y="0px"
	 viewBox="0 0 128 128" enable-background="new 0 0 128 128" xml:space="preserve">
<linearGradient id="SVGID_1_" gradientUnits="userSpaceOnUse" x1="128" y1="128" x2="-8.842382e-06" y2="-4.800905e-07">
	<stop  offset="0" style="stop-color:#002C59"/>
	<stop  offset="1" style="stop-color:#5EBFBA"/>
</linearGradient>
<rect x="0" fill="url(#SVGID_1_)" width="128" height="128"/>
<linearGradient id="SVGID_2_" gradientUnits="userSpaceOnUse" x1="8.552831e-04" y1="110.26" x2="128" y2="110.26">
	<stop  offset="0" style="stop-color:#002C59"/>
	<stop  offset="1" style="stop-color:#5EBFBA"/>
</linearGradient>
<rect x="0" y="92.5" fill="url(#SVGID_2_)" width="128" height="35.5"/>
<rect x="29.3" y="92.5" fill="#002C59" width="12.7" height="35.5"/>
<linearGradient id="SVGID_3_" gradientUnits="userSpaceOnUse" x1="86.7882" y1="42.7833" x2="37.0515" y2="92.52">
	<stop  offset="0" style="stop-color:#002C59"/>
	<stop  offset="1" style="stop-color:#5EBFBA"/>
</linearGradient>
<polygon fill="url(#SVGID_3_)" points="37.1,42.8 37.1,92.5 49.7,105.2 74.1,105.2 86.8,92.5 86.8,42.8 "/>
<linearGradient id="SVGID_4_" gradientUnits="userSpaceOnUse" x1="61.9199" y1="42.7833" x2="61.9199" y2="92.5201">
	<stop  offset="0" style="stop-color:#002C59"/>
	<stop  offset="1" style="stop-color:#5EBFBA"/>
</linearGradient>
<path fill="url(#SVGID_4_)" d="M37.1,92.5c27.5,0,49.7-22.3,49.7-49.7H37.1V92.5z"/>
<linearGradient id="SVGID_5_" gradientUnits="userSpaceOnUse" x1="58.3572" y1="28.1807" x2="58.3572" y2="64.3855">
	<stop  offset="0" style="stop-color:#002C59"/>
	<stop  offset="1" style="stop-color:#5EBFBA"/>
</linearGradient>
<polygon fill="url(#SVGID_5_)" points="86.8,28.2 29.9,28.2 29.9,64.4 76.8,64.4 86.8,46.3 "/>
<linearGradient id="SVGID_6_" gradientUnits="userSpaceOnUse" x1="27.4673" y1="61.9266" x2="44.1516" y2="45.2423">
	<stop  offset="0" style="stop-color:#002C59"/>
	<stop  offset="1" style="stop-color:#5EBFBA"/>
</linearGradient>
<rect x="29.9" y="42.8" fill="url(#SVGID_6_)" width="11.8" height="21.6"/>
<linearGradient id="SVGID_7_" gradientUnits="userSpaceOnUse" x1="91.7013" y1="-15.1048" x2="112.9701" y2="-15.1048" gradientTransform="matrix(0.7071 -0.7071 0.7071 0.7071 6.1947 141.4666)">
	<stop  offset="0" style="stop-color:#002C59"/>
	<stop  offset="1" style="stop-color:#5EBFBA"/>
</linearGradient>
<polygon fill="url(#SVGID_7_)" points="82.9,58.4 67.9,73.5 52.8,58.4 67.9,43.4 "/>
<circle fill="#5EBFBA" cx="66" cy="53.8" r="5.9"/>
<circle fill="#5EBFBA" cx="35.8" cy="53.8" r="5.9"/>
<rect x="34.1" y="49.2" fill="#002C59" width="2.9" height="7.7"/>
<rect x="64.6" y="49.2" fill="#002C59" width="2.9" height="7.7"/>
<linearGradient id="SVGID_8_" gradientUnits="userSpaceOnUse" x1="63.1526" y1="42.2377" x2="24.1941" y2="42.2377">
	<stop  offset="0" style="stop-color:#002C59"/>
	<stop  offset="1" style="stop-color:#5EBFBA"/>
</linearGradient>
<path fill="url(#SVGID_8_)" d="M43.7,52c10.8,0,19.5-8.7,19.5-19.5h-39C24.2,43.3,32.9,52,43.7,52z"/>
<linearGradient id="SVGID_9_" gradientUnits="userSpaceOnUse" x1="69.1773" y1="24.7756" x2="45.6638" y2="48.2891">
	<stop  offset="0" style="stop-color:#002C59"/>
	<stop  offset="1" style="stop-color:#5EBFBA"/>
</linearGradient>
<path fill="url(#SVGID_9_)" d="M57.4,52c10.8,0,19.5-8.7,19.5-19.5h-39C37.9,43.3,46.7,52,57.4,52z"/>
<path fill="#002C59" d="M111.5,41.5c-28-28-73.3-28-101.3,0H111.5z"/>
<linearGradient id="SVGID_10_" gradientUnits="userSpaceOnUse" x1="38.4759" y1="47.4621" x2="73.4906" y2="12.4474">
	<stop  offset="0" style="stop-color:#002C59"/>
	<stop  offset="1" style="stop-color:#5EBFBA"/>
</linearGradient>
<path fill="url(#SVGID_10_)" d="M60.8,20.5c-8.6,0-17.2,1.5-25.3,4.6v19.4h31.3l19.4-19.4C78,22,69.4,20.5,60.8,20.5z"/>
<rect x="86.8" y="92.5" fill="#002C59" width="12.7" height="35.5"/>
<g>
	<linearGradient id="SVGID_11_" gradientUnits="userSpaceOnUse" x1="80.4486" y1="39.9435" x2="40.015" y2="80.3771">
		<stop  offset="0" style="stop-color:#002C59"/>
		<stop  offset="1" style="stop-color:#5EBFBA"/>
	</linearGradient>
	<path fill="url(#SVGID_11_)" d="M78.8,54.3C72,61,63.2,64.4,54.4,64.4H44.2H29.9c0,7.9,6.4,14.3,14.3,14.3h10.3
		c17.9,0,32.4-14.5,32.4-32.4L78.8,54.3z"/>
</g>
<rect x="86.8" y="42.8" fill="#002C59" width="11.6" height="14.8"/>
<rect x="70.8" y="60.3" transform="matrix(0.7071 -0.7071 0.7071 0.7071 -20.7739 79.1507)" fill="#002C59" width="28.8" height="8.6"/>
<linearGradient id="SVGID_12_" gradientUnits="userSpaceOnUse" x1="10.1714" y1="43.8842" x2="111.4822" y2="43.8842">
	<stop  offset="0" style="stop-color:#002C59"/>
	<stop  offset="1" style="stop-color:#5EBFBA"/>
</linearGradient>
<rect x="10.2" y="41.5" fill="url(#SVGID_12_)" width="101.3" height="4.8"/>
</svg>
