<?xml version="1.0" encoding="utf-8"?>
<!-- Generator: Adobe Illustrator 18.1.1, SVG Export Plug-In . SVG Version: 6.00 Build 0)  -->
<svg version="1.1" id="Layer_1" xmlns="http://www.w3.org/2000/svg" xmlns:xlink="http://www.w3.org/1999/xlink" x="0px" y="0px"
	 viewBox="0 0 128 128" enable-background="new 0 0 128 128" xml:space="preserve">
<linearGradient id="SVGID_1_" gradientUnits="userSpaceOnUse" x1="4.479987e-02" y1="2.260113e-07" x2="128.0448" y2="128">
	<stop  offset="0" style="stop-color:#002C59"/>
	<stop  offset="1" style="stop-color:#5EBFBA"/>
</linearGradient>
<rect x="0" fill="url(#SVGID_1_)" width="128" height="128"/>
<linearGradient id="SVGID_2_" gradientUnits="userSpaceOnUse" x1="104.8671" y1="151.1777" x2="23.2225" y2="69.5332">
	<stop  offset="0" style="stop-color:#002C59"/>
	<stop  offset="1" style="stop-color:#5EBFBA"/>
</linearGradient>
<rect x="0" y="92.7" fill="url(#SVGID_2_)" width="128" height="35.3"/>
<linearGradient id="SVGID_3_" gradientUnits="userSpaceOnUse" x1="97.1288" y1="114.2962" x2="30.9608" y2="48.1281">
	<stop  offset="0" style="stop-color:#002C59"/>
	<stop  offset="1" style="stop-color:#5EBFBA"/>
</linearGradient>
<circle fill="url(#SVGID_3_)" cx="64" cy="81.2" r="46.8"/>
<linearGradient id="SVGID_4_" gradientUnits="userSpaceOnUse" x1="63.9538" y1="69.4848" x2="40.6206" y2="46.1516">
	<stop  offset="0" style="stop-color:#002C59"/>
	<stop  offset="1" style="stop-color:#5EBFBA"/>
</linearGradient>
<rect x="40.7" y="46.1" fill="url(#SVGID_4_)" width="23.3" height="23.4"/>
<circle fill="#002C59" cx="50.8" cy="56.2" r="8"/>
<rect x="63.9" y="46.1" fill="#002C59" width="4.3" height="19.1"/>
<path fill="#002C59" d="M61.8,34.5c-7.7,0.4-14.9,2.6-21.2,6.2v0.2h21.2V34.5z"/>
<path fill="#002C59" d="M66,34.5v6.4h21.3v-0.2C81,37,73.8,34.8,66,34.5z"/>
<rect x="50.8" y="72.4" fill="#002C59" width="13.2" height="8.8"/>
<rect x="40.7" y="72.4" fill="#002C59" width="7.2" height="8.8"/>
<circle fill="#5EBFBA" cx="59.7" cy="76.8" r="3"/>
<rect x="96.8" y="65.2" fill="#002C59" width="11.2" height="15.9"/>
<linearGradient id="SVGID_5_" gradientUnits="userSpaceOnUse" x1="68.7151" y1="70.0407" x2="77.9742" y2="79.2998">
	<stop  offset="0" style="stop-color:#002C59"/>
	<stop  offset="1" style="stop-color:#5EBFBA"/>
</linearGradient>
<circle fill="url(#SVGID_5_)" cx="73.3" cy="74.7" r="6.5"/>
<circle fill="#5EBFBA" cx="73.3" cy="74.7" r="3.1"/>
<rect x="82.8" y="65.2" fill="#002C59" width="11.2" height="15.9"/>
<rect x="26.6" y="65.2" fill="#002C59" width="11.2" height="15.8"/>
<path fill="#002C59" d="M23.7,81.1V65.2h-3.7c-1.8,4.9-2.8,10.3-2.8,15.8H23.7z"/>
<rect x="17.3" y="92.7" fill="#5EBFBA" width="93.6" height="35.3"/>
<rect x="17.3" y="84.1" fill="#002C59" width="93.6" height="2.9"/>
<linearGradient id="SVGID_6_" gradientUnits="userSpaceOnUse" x1="110.8327" y1="89.8499" x2="17.2569" y2="89.8499">
	<stop  offset="0" style="stop-color:#002C59"/>
	<stop  offset="1" style="stop-color:#5EBFBA"/>
</linearGradient>
<rect x="17.3" y="87" fill="url(#SVGID_6_)" width="93.6" height="5.8"/>
<rect x="26.6" y="92.7" fill="#002C59" width="56.1" height="5.8"/>
<rect x="26.6" y="101.4" fill="#002C59" width="56.1" height="5.8"/>
<rect x="26.6" y="112.9" fill="#002C59" width="56.1" height="5.8"/>
</svg>
