<?xml version="1.0" encoding="utf-8"?>
<!-- Generator: Adobe Illustrator 18.1.1, SVG Export Plug-In . SVG Version: 6.00 Build 0)  -->
<svg version="1.1" id="Layer_1" xmlns="http://www.w3.org/2000/svg" xmlns:xlink="http://www.w3.org/1999/xlink" x="0px" y="0px"
	 viewBox="0 0 128 128" enable-background="new 0 0 128 128" xml:space="preserve">
<linearGradient id="SVGID_1_" gradientUnits="userSpaceOnUse" x1="128" y1="128" x2="1.526310e-05" y2="7.077505e-06">
	<stop  offset="0" style="stop-color:#4E0375"/>
	<stop  offset="1" style="stop-color:#FF5B3A"/>
</linearGradient>
<rect y="0" fill="url(#SVGID_1_)" width="128" height="128"/>
<rect x="0" y="92.5" fill="#4E0375" width="128" height="35.5"/>
<path fill="#4E0375" d="M99.1,61.7L99.1,61.7l0-13.8c0-17.7-14.3-32-32-32H52c-11.8,0-21.3,9.6-21.3,21.3l67.6,67.3l13.6-12
	C103.3,84,99.1,72.8,99.1,61.7z"/>
<path fill="#4E0375" d="M30.7,53.2v8.5h0c0,11.2-4.3,22.4-12.8,30.9l12.8,1.9h55.6V53.2H30.7z"/>
<linearGradient id="SVGID_2_" gradientUnits="userSpaceOnUse" x1="73.4746" y1="87.0649" x2="30.6751" y2="87.0649">
	<stop  offset="0" style="stop-color:#4E0375"/>
	<stop  offset="1" style="stop-color:#FF5B3A"/>
</linearGradient>
<path fill="url(#SVGID_2_)" d="M73.5,92.5L73.5,92.5l0-28.6l-23.5,0l-3-3H30.7v42.9h12.9l9.3,9.3h12h0
	C64.9,105.7,67.7,98.3,73.5,92.5L73.5,92.5L73.5,92.5C73.5,92.5,73.5,92.5,73.5,92.5z"/>
<path fill="#FF5B3A" d="M64.9,37.2c-9.3,0-34.2,0-34.2,0v16h34.3c3,0,5.4,2.4,5.4,5.4s-2.4,5.4-5.4,5.4c0,0,0,0,0,0v0H50v5.2
	l23.4,23.4h0c0,0,0,0,0,0l0,0l0,0l12.8-12.8c0-7.5,0-16.4,0-21.2C86.3,46.8,76.7,37.2,64.9,37.2z"/>
<linearGradient id="SVGID_3_" gradientUnits="userSpaceOnUse" x1="75.5455" y1="71.7791" x2="50.019" y2="71.7791">
	<stop  offset="3.263672e-02" style="stop-color:#4E0375"/>
	<stop  offset="1" style="stop-color:#FF5B3A"/>
</linearGradient>
<polygon fill="url(#SVGID_3_)" points="70.2,69.1 50,69.1 55.4,74.5 75.5,74.5 "/>
<linearGradient id="SVGID_4_" gradientUnits="userSpaceOnUse" x1="75.5808" y1="82.4406" x2="60.6839" y2="82.4406">
	<stop  offset="3.263672e-02" style="stop-color:#4E0375"/>
	<stop  offset="1" style="stop-color:#FF5B3A"/>
</linearGradient>
<polygon fill="url(#SVGID_4_)" points="75.6,85.1 70.2,79.8 60.7,79.8 60.7,79.8 66,85.1 "/>
<linearGradient id="SVGID_5_" gradientUnits="userSpaceOnUse" x1="69.048" y1="40.0033" x2="45.9171" y2="63.1343">
	<stop  offset="3.263672e-02" style="stop-color:#4E0375"/>
	<stop  offset="1" style="stop-color:#FF5B3A"/>
</linearGradient>
<path fill="url(#SVGID_5_)" d="M81,58.6c0-8.9-7.2-16-16-16H30.7v5.4h34.3c5.9,0,10.7,4.8,10.7,10.7h0v5.3H81L81,58.6L81,58.6z"/>
</svg>
