<?xml version="1.0" encoding="utf-8"?>
<!-- Generator: Adobe Illustrator 18.1.1, SVG Export Plug-In . SVG Version: 6.00 Build 0)  -->
<svg version="1.1" id="Layer_1" xmlns="http://www.w3.org/2000/svg" xmlns:xlink="http://www.w3.org/1999/xlink" x="0px" y="0px"
	 viewBox="0 0 128 128" enable-background="new 0 0 128 128" xml:space="preserve">
<linearGradient id="SVGID_1_" gradientUnits="userSpaceOnUse" x1="0.1493" y1="1.063153e-05" x2="128.1493" y2="128">
	<stop  offset="0" style="stop-color:#002C59"/>
	<stop  offset="1" style="stop-color:#5EBFBA"/>
</linearGradient>
<rect x="0.1" y="0" fill="url(#SVGID_1_)" width="128" height="128"/>
<linearGradient id="SVGID_2_" gradientUnits="userSpaceOnUse" x1="128.1493" y1="110.3555" x2="0.1493" y2="110.3555">
	<stop  offset="0" style="stop-color:#D99B20"/>
	<stop  offset="1" style="stop-color:#FFCE4B"/>
</linearGradient>
<rect x="0.1" y="92.7" fill="url(#SVGID_2_)" width="128" height="35.3"/>
<path fill="#FFCE4B" d="M64,16.4L35.7,44.7c0,0,0,0,0,0C35.7,60.3,48.4,73,64,73c15.6,0,28.3-12.7,28.3-28.3
	C92.3,29.1,79.6,16.4,64,16.4z"/>
<rect x="48.3" y="47.5" fill="#D99B20" width="36.4" height="64.2"/>
<polygon fill="#FFCE4B" points="35.1,44.5 26.3,53.2 43.8,53.2 "/>
<linearGradient id="SVGID_3_" gradientUnits="userSpaceOnUse" x1="84.5924" y1="47.6352" x2="34.6601" y2="47.6323" gradientTransform="matrix(1 -5.767217e-05 5.767217e-05 1 7.482891e-02 -0.1459)">
	<stop  offset="0" style="stop-color:#D99B20"/>
	<stop  offset="1" style="stop-color:#FFCE4B"/>
</linearGradient>
<circle fill="url(#SVGID_3_)" cx="59.7" cy="47.5" r="25"/>
<rect x="43" y="109.1" fill="#FFCE4B" width="46.7" height="5.2"/>
<linearGradient id="SVGID_4_" gradientUnits="userSpaceOnUse" x1="47.5045" y1="71.3836" x2="88.4611" y2="71.3836">
	<stop  offset="0" style="stop-color:#D99B20"/>
	<stop  offset="1" style="stop-color:#FFCE4B"/>
</linearGradient>
<rect x="47.5" y="53.2" fill="url(#SVGID_4_)" width="41" height="36.3"/>
<linearGradient id="SVGID_5_" gradientUnits="userSpaceOnUse" x1="55.5554" y1="80.6589" x2="29.3895" y2="54.493">
	<stop  offset="0" style="stop-color:#D99B20"/>
	<stop  offset="1" style="stop-color:#FFCE4B"/>
</linearGradient>
<path fill="url(#SVGID_5_)" d="M30.7,53.2v6.7c0,10.1,3.9,20.2,11.6,27.9h6.2V53.2L30.7,53.2z"/>
<linearGradient id="SVGID_6_" gradientUnits="userSpaceOnUse" x1="26.3025" y1="56.4595" x2="48.4239" y2="56.4595">
	<stop  offset="0" style="stop-color:#D99B20"/>
	<stop  offset="1" style="stop-color:#FFCE4B"/>
</linearGradient>
<path fill="url(#SVGID_6_)" d="M48.4,53.2L37.4,64.3L26.3,53.2C32.4,47.1,42.3,47.1,48.4,53.2z"/>
<circle fill="#FFCE4B" cx="37.4" cy="59.8" r="6.7"/>
<circle fill="#333333" cx="37.4" cy="59.8" r="1.7"/>
<rect x="42.3" y="83.4" fill="#333333" width="12.4" height="5.7"/>
<linearGradient id="SVGID_7_" gradientUnits="userSpaceOnUse" x1="88.4611" y1="93.6555" x2="42.2627" y2="93.6555">
	<stop  offset="0" style="stop-color:#D99B20"/>
	<stop  offset="1" style="stop-color:#FFCE4B"/>
</linearGradient>
<path fill="url(#SVGID_7_)" d="M42.3,87.7v6c0,3.2,2.6,5.8,5.8,5.8h40.4V87.7H42.3z"/>
<linearGradient id="SVGID_8_" gradientUnits="userSpaceOnUse" x1="63.0995" y1="52.1253" x2="47.8338" y2="67.3909">
	<stop  offset="0" style="stop-color:#7D7569"/>
	<stop  offset="3.250000e-02" style="stop-color:#D99B20"/>
	<stop  offset="1" style="stop-color:#FFCE4B"/>
</linearGradient>
<polygon fill="url(#SVGID_8_)" points="48.5,53.2 48.5,68 54.6,74.2 64.2,64.5 64.2,53.2 "/>
<linearGradient id="SVGID_9_" gradientUnits="userSpaceOnUse" x1="48.4239" y1="56.4595" x2="70.5453" y2="56.4595">
	<stop  offset="0" style="stop-color:#D99B20"/>
	<stop  offset="1" style="stop-color:#FFCE4B"/>
</linearGradient>
<path fill="url(#SVGID_9_)" d="M48.4,53.2l11.1,11.1l11.1-11.1C64.4,47.1,54.5,47.1,48.4,53.2z"/>
<polygon fill="#FFCE4B" points="48.5,77.3 42.3,83.4 54.7,83.4 "/>
<linearGradient id="SVGID_10_" gradientUnits="userSpaceOnUse" x1="88.4613" y1="87.728" x2="88.4613" y2="44.6712">
	<stop  offset="0" style="stop-color:#D99B20"/>
	<stop  offset="1" style="stop-color:#FFCE4B"/>
</linearGradient>
<rect x="84.7" y="44.7" fill="url(#SVGID_10_)" width="7.6" height="43.1"/>
<circle fill="#FFCE4B" cx="59.5" cy="59.8" r="6.7"/>
<circle fill="#333333" cx="59.5" cy="59.8" r="1.7"/>
<circle fill="#FFCE4B" cx="88.5" cy="92.8" r="6.8"/>
</svg>
