<?xml version="1.0" encoding="utf-8"?>
<!-- Generator: Adobe Illustrator 18.1.1, SVG Export Plug-In . SVG Version: 6.00 Build 0)  -->
<svg version="1.1" id="Layer_1" xmlns="http://www.w3.org/2000/svg" xmlns:xlink="http://www.w3.org/1999/xlink" x="0px" y="0px"
	 viewBox="0 0 128 128" enable-background="new 0 0 128 128" xml:space="preserve">
<linearGradient id="SVGID_1_" gradientUnits="userSpaceOnUse" x1="127.9508" y1="128" x2="-4.922118e-02" y2="-4.771629e-06">
	<stop  offset="0" style="stop-color:#002C59"/>
	<stop  offset="1" style="stop-color:#5EBFBA"/>
</linearGradient>
<rect x="0" fill="url(#SVGID_1_)" width="128" height="128"/>
<linearGradient id="SVGID_2_" gradientUnits="userSpaceOnUse" x1="83.4371" y1="52.5557" x2="32.367" y2="103.6257">
	<stop  offset="0" style="stop-color:#002C59"/>
	<stop  offset="1" style="stop-color:#5EBFBA"/>
</linearGradient>
<rect x="34" y="50.9" fill="url(#SVGID_2_)" width="47.8" height="54.3"/>
<linearGradient id="SVGID_3_" gradientUnits="userSpaceOnUse" x1="90.7176" y1="63.9407" x2="59.1144" y2="95.5438">
	<stop  offset="0" style="stop-color:#002C59"/>
	<stop  offset="1" style="stop-color:#5EBFBA"/>
</linearGradient>
<circle fill="url(#SVGID_3_)" cx="74.9" cy="79.7" r="22.3"/>
<polygon fill="#002C59" points="97.3,93.8 55.9,93.8 97.3,52.4 "/>
<linearGradient id="SVGID_4_" gradientUnits="userSpaceOnUse" x1="-4.651292e-02" y1="110.26" x2="127.9526" y2="110.26">
	<stop  offset="0" style="stop-color:#002C59"/>
	<stop  offset="1" style="stop-color:#5EBFBA"/>
</linearGradient>
<rect x="0" y="92.5" fill="url(#SVGID_4_)" width="128" height="35.5"/>
<linearGradient id="SVGID_5_" gradientUnits="userSpaceOnUse" x1="55.8311" y1="90.4057" x2="33.8624" y2="112.3744">
	<stop  offset="0" style="stop-color:#002C59"/>
	<stop  offset="1" style="stop-color:#5EBFBA"/>
</linearGradient>
<rect x="31.7" y="92.5" fill="url(#SVGID_5_)" width="26.2" height="17.7"/>
<rect x="10.7" y="105.3" fill="#5EBFBA" width="25.5" height="22.7"/>
<path fill="#5EBFBA" d="M36.2,79.7c-14.1,0-25.5,11.4-25.5,25.5h25.5V79.7z"/>
<linearGradient id="SVGID_6_" gradientUnits="userSpaceOnUse" x1="92.0039" y1="101.39" x2="43.6973" y2="101.39">
	<stop  offset="0" style="stop-color:#002C59"/>
	<stop  offset="1" style="stop-color:#5EBFBA"/>
</linearGradient>
<path fill="url(#SVGID_6_)" d="M91.9,92.5H52.6c-4.9,0-8.9,4-8.9,8.9v8.9H92L91.9,92.5z"/>
<path fill="#5EBFBA" d="M97.3,79.7L49,128h68.2V99.7C117.2,88.7,108.3,79.7,97.3,79.7z"/>
<path fill="#002C59" d="M95.8,102.7c-0.2,3.9-3.5,7.1-7.4,7.1c-4,0-7.2-3.1-7.4-7.1c-0.9,1.4-1.4,3-1.4,4.8c0,4.9,4,8.9,8.9,8.9
	s8.9-4,8.9-8.9C97.3,105.7,96.7,104.1,95.8,102.7z"/>
<circle fill="#002C59" cx="88.4" cy="102.3" r="3.6"/>
<path fill="#5EBFBA" d="M101.4,43.9c0-14.4-11.7-26.1-26.1-26.1h-22v0c-14.4,0-26.1,11.7-26.1,26.1l37.1,7L101.4,43.9z"/>
<linearGradient id="SVGID_7_" gradientUnits="userSpaceOnUse" x1="33.9977" y1="56.6093" x2="33.9977" y2="80.7157">
	<stop  offset="0" style="stop-color:#002C59"/>
	<stop  offset="1" style="stop-color:#5EBFBA"/>
</linearGradient>
<rect x="31.7" y="56.6" fill="url(#SVGID_7_)" width="4.5" height="24.1"/>
<linearGradient id="SVGID_8_" gradientUnits="userSpaceOnUse" x1="62.3027" y1="42.2548" x2="50.6531" y2="30.6053">
	<stop  offset="0" style="stop-color:#002C59"/>
	<stop  offset="1" style="stop-color:#5EBFBA"/>
</linearGradient>
<rect x="49" y="32.3" fill="url(#SVGID_8_)" width="14.9" height="8.4"/>
<g>
	<path fill="#002C59" d="M80.8,27.2c-0.2,2.9-2.5,5.2-5.5,5.2c-2.9,0-5.3-2.3-5.5-5.2c-0.7,1-1.1,2.2-1.1,3.5c0,3.6,2.9,6.5,6.5,6.5
		s6.5-2.9,6.5-6.5C81.8,29.5,81.4,28.2,80.8,27.2z"/>
	<circle fill="#002C59" cx="75.3" cy="26.9" r="2.7"/>
</g>
<rect x="27.2" y="43.9" fill="#002C59" width="61.4" height="13.5"/>
<polygon fill="#5EBFBA" points="101.4,43.9 93.4,38.9 52.6,79.8 52.6,92.5 65.6,92.5 101.4,56.7 "/>
<circle fill="#002C59" cx="97.3" cy="52.4" r="8.5"/>
<linearGradient id="SVGID_9_" gradientUnits="userSpaceOnUse" x1="42.6362" y1="79.7423" x2="42.6362" y2="92.52">
	<stop  offset="0" style="stop-color:#002C59"/>
	<stop  offset="1" style="stop-color:#5EBFBA"/>
</linearGradient>
<path fill="url(#SVGID_9_)" d="M49,92.5v-6.3c0-3.6-2.9-6.4-6.4-6.5h-6.3C36.2,86.8,42,92.5,49,92.5L49,92.5L49,92.5z"/>
</svg>
