<?xml version="1.0" encoding="utf-8"?>
<!-- Generator: Adobe Illustrator 18.1.1, SVG Export Plug-In . SVG Version: 6.00 Build 0)  -->
<svg version="1.1" id="Layer_1" xmlns="http://www.w3.org/2000/svg" xmlns:xlink="http://www.w3.org/1999/xlink" x="0px" y="0px"
	 viewBox="0 0 128 128" enable-background="new 0 0 128 128" xml:space="preserve">
<linearGradient id="SVGID_1_" gradientUnits="userSpaceOnUse" x1="128" y1="128" x2="4.309939e-09" y2="7.077504e-06">
	<stop  offset="0" style="stop-color:#4E0375"/>
	<stop  offset="1" style="stop-color:#FF5B3A"/>
</linearGradient>
<rect y="0" fill="url(#SVGID_1_)" width="128" height="128"/>
<linearGradient id="SVGID_2_" gradientUnits="userSpaceOnUse" x1="0" y1="110.274" x2="89.8307" y2="110.274">
	<stop  offset="0" style="stop-color:#4E0375"/>
	<stop  offset="1" style="stop-color:#FF5B3A"/>
</linearGradient>
<rect x="0" y="92.5" fill="url(#SVGID_2_)" width="89.8" height="35.5"/>
<polygon fill="#4E0375" points="33.9,92.5 69.4,128 128,128 128,92.5 "/>
<polygon fill="#FF5B3A" points="76.2,128 49,100.9 36.5,100.9 63.6,128 "/>
<polygon fill="#4E0375" points="23.6,76.7 33.1,86.2 33.1,67.2 "/>
<linearGradient id="SVGID_3_" gradientUnits="userSpaceOnUse" x1="40.4069" y1="25.2653" x2="85.6779" y2="70.5363">
	<stop  offset="0" style="stop-color:#4E0375"/>
	<stop  offset="1" style="stop-color:#FF5B3A"/>
</linearGradient>
<circle fill="url(#SVGID_3_)" cx="63" cy="47.9" r="32"/>
<rect x="31" y="47.9" fill="#4E0375" width="58.8" height="55.9"/>
<polygon fill="#FF5B3A" points="23.6,96.2 31,103.7 36.3,89.5 23.6,76.7 "/>
<linearGradient id="SVGID_4_" gradientUnits="userSpaceOnUse" x1="101.5316" y1="54.3786" x2="58.8391" y2="97.071">
	<stop  offset="0" style="stop-color:#4E0375"/>
	<stop  offset="1" style="stop-color:#FF5B3A"/>
</linearGradient>
<path fill="url(#SVGID_4_)" d="M100.9,68.5L100.9,68.5l-5.8-5.8V47.9H84.4v29.2H48.3l0,9.4l17.3,17.3c4.7,4.7,12.4,4.7,17.1,0
	l18.2-18.2C105.6,80.9,105.6,73.2,100.9,68.5z"/>
<polygon fill="#4E0375" points="95.1,69.1 84.4,58.4 84.4,69.6 67.6,86.4 72.7,91.4 "/>
<linearGradient id="SVGID_5_" gradientUnits="userSpaceOnUse" x1="48.2533" y1="69.1891" x2="84.3779" y2="69.1891">
	<stop  offset="0" style="stop-color:#4E0375"/>
	<stop  offset="1" style="stop-color:#FF5B3A"/>
</linearGradient>
<path fill="url(#SVGID_5_)" d="M84.4,52c0,3.8-1.5,7.7-4.4,10.6c-5.8,5.8-15.3,5.8-21.2,0L48.3,52v15l19.4,19.4l16.7-16.7V52z"/>
<linearGradient id="SVGID_6_" gradientUnits="userSpaceOnUse" x1="56.8707" y1="60.6326" x2="22.4137" y2="95.0896">
	<stop  offset="0" style="stop-color:#4E0375"/>
	<stop  offset="1" style="stop-color:#FF5B3A"/>
</linearGradient>
<polygon fill="url(#SVGID_6_)" points="31,69.2 31,69.2 31,103.7 48.3,86.5 48.3,52 "/>
<path fill="#4E0375" d="M65.5,84.2L48.3,67L31,84.2C40.5,74.7,56,74.7,65.5,84.2z"/>
<linearGradient id="SVGID_7_" gradientUnits="userSpaceOnUse" x1="55.3187" y1="15.8878" x2="55.3187" y2="47.9008">
	<stop  offset="0" style="stop-color:#4E0375"/>
	<stop  offset="1" style="stop-color:#FF5B3A"/>
</linearGradient>
<path fill="url(#SVGID_7_)" d="M39.5,47.9h19.3c0-11.1,4.1-22.3,12.3-31c-2.6-0.7-5.3-1-8.1-1c-4.5,0-8.8,0.9-12.7,2.6
	C43.1,26.9,39.5,37.4,39.5,47.9z"/>
<circle fill="#FF5B3A" cx="66.6" cy="36" r="7.7"/>
<polygon fill="#FF5B3A" points="58.8,62.6 48.3,52 48.3,67 58.8,77.6 "/>
</svg>
