<?xml version="1.0" encoding="utf-8"?>
<!-- Generator: Adobe Illustrator 18.1.1, SVG Export Plug-In . SVG Version: 6.00 Build 0)  -->
<svg version="1.1" id="Layer_1" xmlns="http://www.w3.org/2000/svg" xmlns:xlink="http://www.w3.org/1999/xlink" x="0px" y="0px"
	 viewBox="0 0 128 128" enable-background="new 0 0 128 128" xml:space="preserve">
<g>
	<rect x="0" fill="#5EBFBA" width="128" height="128"/>
	<linearGradient id="SVGID_1_" gradientUnits="userSpaceOnUse" x1="83.4845" y1="52.5557" x2="32.4144" y2="103.6257">
		<stop  offset="0" style="stop-color:#7D7569"/>
		<stop  offset="1" style="stop-color:#E6CFB8"/>
	</linearGradient>
	<rect x="34" y="50.9" fill="url(#SVGID_1_)" width="47.8" height="54.3"/>
	<linearGradient id="SVGID_2_" gradientUnits="userSpaceOnUse" x1="74.9634" y1="57.3955" x2="74.9634" y2="102.0891">
		<stop  offset="0" style="stop-color:#7D7569"/>
		<stop  offset="1" style="stop-color:#E6CFB8"/>
	</linearGradient>
	<circle fill="url(#SVGID_2_)" cx="75" cy="79.7" r="22.3"/>
	<polygon fill="#EA6911" points="97.4,93.8 56,93.8 97.4,52.4 	"/>
	<linearGradient id="SVGID_3_" gradientUnits="userSpaceOnUse" x1="8.479815e-04" y1="110.26" x2="128" y2="110.26">
		<stop  offset="0" style="stop-color:#7F3A14"/>
		<stop  offset="1" style="stop-color:#EA6911"/>
	</linearGradient>
	<rect x="0" y="92.5" fill="url(#SVGID_3_)" width="128" height="35.5"/>
	<linearGradient id="SVGID_4_" gradientUnits="userSpaceOnUse" x1="55.8785" y1="90.4057" x2="33.9098" y2="112.3744">
		<stop  offset="0" style="stop-color:#7F3A14"/>
		<stop  offset="1" style="stop-color:#EA6911"/>
	</linearGradient>
	<rect x="31.8" y="92.5" fill="url(#SVGID_4_)" width="26.2" height="17.7"/>
	<path fill="#EFEFEC" d="M10.8,105.3V128h25.5v-22.7V79.7C22.2,79.7,10.8,91.2,10.8,105.3z"/>
	<linearGradient id="SVGID_5_" gradientUnits="userSpaceOnUse" x1="92.0512" y1="101.3901" x2="43.7447" y2="101.3901">
		<stop  offset="0" style="stop-color:#7F3A14"/>
		<stop  offset="1" style="stop-color:#EA6911"/>
	</linearGradient>
	<path fill="url(#SVGID_5_)" d="M92,92.5H52.6c-4.9,0-8.9,4-8.9,8.9v8.9h48.3L92,92.5z"/>
	<path fill="#EFEFEC" d="M97.3,79.7L49.1,128h68.2V99.7C117.2,88.7,108.3,79.7,97.3,79.7z"/>
	<path fill="#333333" d="M95.9,102.7c-0.2,3.9-3.5,7.1-7.4,7.1c-4,0-7.2-3.1-7.4-7.1c-0.9,1.4-1.4,3-1.4,4.8c0,4.9,4,8.9,8.9,8.9
		s8.9-4,8.9-8.9C97.3,105.7,96.8,104.1,95.9,102.7z"/>
	<circle fill="#333333" cx="88.4" cy="102.3" r="3.6"/>
	<linearGradient id="SVGID_6_" gradientUnits="userSpaceOnUse" x1="85.6255" y1="59.7858" x2="43.1362" y2="17.2965">
		<stop  offset="0" style="stop-color:#BDBDBD"/>
		<stop  offset="1" style="stop-color:#EFEFEC"/>
	</linearGradient>
	<path fill="url(#SVGID_6_)" d="M101.5,43.9c0-14.4-11.7-26.1-26.1-26.1h-22v0c-14.4,0-26.1,11.7-26.1,26.1l37.1,7L101.5,43.9z"/>
	<linearGradient id="SVGID_7_" gradientUnits="userSpaceOnUse" x1="34.045" y1="56.6094" x2="34.045" y2="80.7157">
		<stop  offset="0" style="stop-color:#767676"/>
		<stop  offset="1" style="stop-color:#EFEFEC"/>
	</linearGradient>
	<rect x="31.8" y="56.6" fill="url(#SVGID_7_)" width="4.5" height="24.1"/>
	<linearGradient id="SVGID_8_" gradientUnits="userSpaceOnUse" x1="62.35" y1="42.2548" x2="50.7005" y2="30.6053">
		<stop  offset="0" style="stop-color:#333333"/>
		<stop  offset="1" style="stop-color:#EFEFEC"/>
	</linearGradient>
	<rect x="49.1" y="32.3" fill="url(#SVGID_8_)" width="14.9" height="8.4"/>
	<g>
		<path fill="#333333" d="M80.8,27.2c-0.2,2.9-2.5,5.2-5.5,5.2c-2.9,0-5.3-2.3-5.5-5.2c-0.7,1-1.1,2.2-1.1,3.5
			c0,3.6,2.9,6.5,6.5,6.5s6.5-2.9,6.5-6.5C81.9,29.5,81.5,28.2,80.8,27.2z"/>
		<circle fill="#333333" cx="75.3" cy="26.9" r="2.7"/>
	</g>
	<linearGradient id="SVGID_9_" gradientUnits="userSpaceOnUse" x1="27.2962" y1="50.6602" x2="88.6527" y2="50.6602">
		<stop  offset="0" style="stop-color:#FFBB00"/>
		<stop  offset="1" style="stop-color:#EA6911"/>
	</linearGradient>
	<rect x="27.3" y="43.9" fill="url(#SVGID_9_)" width="61.4" height="13.5"/>
	<linearGradient id="SVGID_10_" gradientUnits="userSpaceOnUse" x1="101.396" y1="43.8762" x2="52.6834" y2="92.5888">
		<stop  offset="0" style="stop-color:#BDBDBD"/>
		<stop  offset="1" style="stop-color:#EFEFEC"/>
	</linearGradient>
	<polygon fill="url(#SVGID_10_)" points="101.5,43.9 88.6,43.8 52.6,79.8 52.6,92.5 65.6,92.5 101.5,56.7 	"/>
	<circle fill="#333333" cx="97.4" cy="52.4" r="8.5"/>
	<linearGradient id="SVGID_11_" gradientUnits="userSpaceOnUse" x1="42.6836" y1="79.7423" x2="42.6836" y2="92.52">
		<stop  offset="0" style="stop-color:#7D7569"/>
		<stop  offset="1" style="stop-color:#E6CFB8"/>
	</linearGradient>
	<path fill="url(#SVGID_11_)" d="M49.1,92.5v-6.3c0-3.6-2.9-6.4-6.4-6.5h-6.3C36.3,86.8,42,92.5,49.1,92.5L49.1,92.5L49.1,92.5z"/>
</g>
</svg>
