<?xml version="1.0" encoding="utf-8"?>
<!-- Generator: Adobe Illustrator 18.1.1, SVG Export Plug-In . SVG Version: 6.00 Build 0)  -->
<svg version="1.1" id="Layer_1" xmlns="http://www.w3.org/2000/svg" xmlns:xlink="http://www.w3.org/1999/xlink" x="0px" y="0px"
	 viewBox="0 0 128 128" enable-background="new 0 0 128 128" xml:space="preserve">
<linearGradient id="SVGID_1_" gradientUnits="userSpaceOnUse" x1="-6.841407e-02" y1="-3.155947e-09" x2="127.9316" y2="128">
	<stop  offset="0" style="stop-color:#002C59"/>
	<stop  offset="1" style="stop-color:#5EBFBA"/>
</linearGradient>
<rect x="-0.1" y="0" fill="url(#SVGID_1_)" width="128" height="128"/>
<linearGradient id="SVGID_2_" gradientUnits="userSpaceOnUse" x1="104.7539" y1="151.1777" x2="23.1093" y2="69.5332">
	<stop  offset="0" style="stop-color:#DCDCDC"/>
	<stop  offset="1" style="stop-color:#FFFFFF"/>
</linearGradient>
<rect x="-0.1" y="92.7" fill="url(#SVGID_2_)" width="128" height="35.3"/>
<linearGradient id="SVGID_3_" gradientUnits="userSpaceOnUse" x1="97.0156" y1="114.2962" x2="30.8476" y2="48.1281">
	<stop  offset="0" style="stop-color:#DCDCDC"/>
	<stop  offset="1" style="stop-color:#FFFFFF"/>
</linearGradient>
<circle fill="url(#SVGID_3_)" cx="63.9" cy="81.2" r="46.8"/>
<linearGradient id="SVGID_4_" gradientUnits="userSpaceOnUse" x1="63.8406" y1="69.4848" x2="40.5074" y2="46.1516">
	<stop  offset="0" style="stop-color:#005689"/>
	<stop  offset="1" style="stop-color:#4BC6DF"/>
</linearGradient>
<rect x="40.5" y="46.1" fill="url(#SVGID_4_)" width="23.3" height="23.4"/>
<circle fill="#222222" cx="50.6" cy="56.2" r="8"/>
<rect x="63.8" y="46.1" fill="#005689" width="4.3" height="19.1"/>
<path fill="#005689" d="M61.7,34.5c-7.7,0.4-14.9,2.6-21.2,6.2v0.2h21.2V34.5z"/>
<path fill="#005689" d="M65.9,34.5v6.4h21.3v-0.2C80.9,37,73.7,34.8,65.9,34.5z"/>
<rect x="50.6" y="72.4" fill="#005689" width="13.2" height="8.8"/>
<rect x="40.5" y="72.4" fill="#005689" width="7.2" height="8.8"/>
<circle fill="#FF5B3A" cx="59.6" cy="76.8" r="3"/>
<rect x="96.7" y="65.2" fill="#005689" width="11.2" height="15.9"/>
<linearGradient id="SVGID_5_" gradientUnits="userSpaceOnUse" x1="68.6019" y1="70.0407" x2="77.861" y2="79.2998">
	<stop  offset="0" style="stop-color:#767676"/>
	<stop  offset="1" style="stop-color:#FFFFFF"/>
</linearGradient>
<circle fill="url(#SVGID_5_)" cx="73.2" cy="74.7" r="6.5"/>
<circle fill="#767676" cx="73.2" cy="74.7" r="3.1"/>
<rect x="82.7" y="65.2" fill="#005689" width="11.2" height="15.9"/>
<rect x="26.5" y="65.2" fill="#005689" width="11.2" height="15.8"/>
<path fill="#005689" d="M23.6,81.1V65.2h-3.7c-1.8,4.9-2.8,10.3-2.8,15.8H23.6z"/>
<rect x="17.1" y="92.7" fill="#FFFFFF" width="93.6" height="35.3"/>
<rect x="17.1" y="84.1" fill="#005689" width="93.6" height="2.9"/>
<linearGradient id="SVGID_6_" gradientUnits="userSpaceOnUse" x1="110.7195" y1="89.8499" x2="17.1437" y2="89.8499">
	<stop  offset="0" style="stop-color:#DCDCDC"/>
	<stop  offset="1" style="stop-color:#FFFFFF"/>
</linearGradient>
<rect x="17.1" y="87" fill="url(#SVGID_6_)" width="93.6" height="5.8"/>
<rect x="26.5" y="92.7" fill="#005689" width="56.1" height="5.8"/>
<rect x="26.5" y="101.4" fill="#005689" width="56.1" height="5.8"/>
<rect x="26.5" y="112.9" fill="#005689" width="56.1" height="5.8"/>
</svg>
