<?xml version="1.0" encoding="utf-8"?>
<!-- Generator: Adobe Illustrator 18.1.1, SVG Export Plug-In . SVG Version: 6.00 Build 0)  -->
<svg version="1.1" id="Layer_1" xmlns="http://www.w3.org/2000/svg" xmlns:xlink="http://www.w3.org/1999/xlink" x="0px" y="0px"
	 viewBox="0 0 128 128" enable-background="new 0 0 128 128" xml:space="preserve">
<linearGradient id="SVGID_1_" gradientUnits="userSpaceOnUse" x1="4.479987e-02" y1="2.260122e-07" x2="128.0448" y2="128">
	<stop  offset="0" style="stop-color:#002C59"/>
	<stop  offset="1" style="stop-color:#5EBFBA"/>
</linearGradient>
<rect x="0" fill="url(#SVGID_1_)" width="128" height="128"/>
<linearGradient id="SVGID_2_" gradientUnits="userSpaceOnUse" x1="128.0448" y1="110.3554" x2="4.480178e-02" y2="110.3554">
	<stop  offset="0" style="stop-color:#002C59"/>
	<stop  offset="1" style="stop-color:#5EBFBA"/>
</linearGradient>
<rect x="0" y="92.7" fill="url(#SVGID_2_)" width="128" height="35.3"/>
<path fill="#5EBFBA" d="M63.9,16.4L35.6,44.7c0,0,0,0,0,0C35.6,60.3,48.3,73,63.9,73c15.6,0,28.3-12.7,28.3-28.3
	C92.1,29.1,79.5,16.4,63.9,16.4z"/>
<rect x="48.2" y="47.5" fill="#002C59" width="36.4" height="64.2"/>
<polygon fill="#5EBFBA" points="35,44.5 26.2,53.2 43.7,53.2 "/>
<linearGradient id="SVGID_3_" gradientUnits="userSpaceOnUse" x1="84.5225" y1="47.6352" x2="34.5902" y2="47.6323" gradientTransform="matrix(1 -5.767217e-05 5.767217e-05 1 4.019723e-02 -0.1459)">
	<stop  offset="0" style="stop-color:#002C59"/>
	<stop  offset="1" style="stop-color:#5EBFBA"/>
</linearGradient>
<circle fill="url(#SVGID_3_)" cx="59.6" cy="47.5" r="25"/>
<rect x="42.9" y="109.1" fill="#5EBFBA" width="46.7" height="5.2"/>
<linearGradient id="SVGID_4_" gradientUnits="userSpaceOnUse" x1="47.4" y1="71.3836" x2="88.3566" y2="71.3836">
	<stop  offset="0" style="stop-color:#002C59"/>
	<stop  offset="1" style="stop-color:#69D1CA"/>
</linearGradient>
<rect x="47.4" y="53.2" fill="url(#SVGID_4_)" width="41" height="36.3"/>
<linearGradient id="SVGID_5_" gradientUnits="userSpaceOnUse" x1="55.4509" y1="80.6589" x2="29.285" y2="54.493">
	<stop  offset="0" style="stop-color:#002C59"/>
	<stop  offset="1" style="stop-color:#5EBFBA"/>
</linearGradient>
<path fill="url(#SVGID_5_)" d="M30.6,53.2v6.7c0,10.1,3.9,20.2,11.6,27.9h6.2V53.2L30.6,53.2z"/>
<linearGradient id="SVGID_6_" gradientUnits="userSpaceOnUse" x1="26.198" y1="56.4595" x2="48.3194" y2="56.4595">
	<stop  offset="0" style="stop-color:#002C59"/>
	<stop  offset="1" style="stop-color:#5EBFBA"/>
</linearGradient>
<path fill="url(#SVGID_6_)" d="M48.3,53.2L37.3,64.3L26.2,53.2C32.3,47.1,42.2,47.1,48.3,53.2z"/>
<circle fill="#5EBFBA" cx="37.3" cy="59.8" r="6.7"/>
<circle fill="#002C59" cx="37.3" cy="59.8" r="1.7"/>
<rect x="42.2" y="83.4" fill="#002C59" width="12.4" height="5.7"/>
<linearGradient id="SVGID_7_" gradientUnits="userSpaceOnUse" x1="88.3566" y1="93.6555" x2="42.1582" y2="93.6555">
	<stop  offset="0" style="stop-color:#002C59"/>
	<stop  offset="1" style="stop-color:#5EBFBA"/>
</linearGradient>
<path fill="url(#SVGID_7_)" d="M42.2,87.7v6c0,3.2,2.6,5.8,5.8,5.8h40.4V87.7H42.2z"/>
<linearGradient id="SVGID_8_" gradientUnits="userSpaceOnUse" x1="62.995" y1="52.1252" x2="47.7293" y2="67.3909">
	<stop  offset="0" style="stop-color:#002C59"/>
	<stop  offset="1" style="stop-color:#5EBFBA"/>
</linearGradient>
<polygon fill="url(#SVGID_8_)" points="48.4,53.2 48.4,68 54.5,74.2 64.1,64.5 64.1,53.2 "/>
<linearGradient id="SVGID_9_" gradientUnits="userSpaceOnUse" x1="48.3194" y1="56.4595" x2="70.4408" y2="56.4595">
	<stop  offset="0" style="stop-color:#002C59"/>
	<stop  offset="1" style="stop-color:#5EBFBA"/>
</linearGradient>
<path fill="url(#SVGID_9_)" d="M48.3,53.2l11.1,11.1l11.1-11.1C64.3,47.1,54.4,47.1,48.3,53.2z"/>
<polygon fill="#5EBFBA" points="48.4,77.3 42.2,83.4 54.5,83.4 "/>
<linearGradient id="SVGID_10_" gradientUnits="userSpaceOnUse" x1="88.3568" y1="87.728" x2="88.3568" y2="44.6712">
	<stop  offset="0" style="stop-color:#002C59"/>
	<stop  offset="1" style="stop-color:#5EBFBA"/>
</linearGradient>
<rect x="84.6" y="44.7" fill="url(#SVGID_10_)" width="7.6" height="43.1"/>
<circle fill="#5EBFBA" cx="59.4" cy="59.8" r="6.7"/>
<circle fill="#002C59" cx="59.4" cy="59.8" r="1.7"/>
<circle fill="#5EBFBA" cx="88.4" cy="92.8" r="6.8"/>
</svg>
