<?xml version="1.0" encoding="utf-8"?>
<!-- Generator: Adobe Illustrator 18.1.1, SVG Export Plug-In . SVG Version: 6.00 Build 0)  -->
<svg version="1.1" id="Layer_1" xmlns="http://www.w3.org/2000/svg" xmlns:xlink="http://www.w3.org/1999/xlink" x="0px" y="0px"
	 viewBox="0 0 128 128" enable-background="new 0 0 128 128" xml:space="preserve">
<g>
	<rect x="0" y="0" fill="#5EBFBA" width="128" height="128"/>
	<linearGradient id="SVGID_1_" gradientUnits="userSpaceOnUse" x1="97.311" y1="92.4993" x2="36.2956" y2="92.4993">
		<stop  offset="0" style="stop-color:#BDBDBD"/>
		<stop  offset="1" style="stop-color:#EFEFEC"/>
	</linearGradient>
	<rect x="36.3" y="79.7" fill="url(#SVGID_1_)" width="61" height="25.5"/>
	<linearGradient id="SVGID_2_" gradientUnits="userSpaceOnUse" x1="1.782106e-03" y1="110.26" x2="128.0009" y2="110.26">
		<stop  offset="0" style="stop-color:#7F3A14"/>
		<stop  offset="1" style="stop-color:#EA6911"/>
	</linearGradient>
	<rect x="0" y="92.5" fill="url(#SVGID_2_)" width="128" height="35.5"/>
	<path fill="#333333" d="M72.6,54H46.8c0,14.2,11.5,25.8,25.8,25.8S98.3,68.2,98.3,54H72.6z"/>
	<linearGradient id="SVGID_3_" gradientUnits="userSpaceOnUse" x1="63.9991" y1="66.94" x2="63.9991" y2="98.2733">
		<stop  offset="0" style="stop-color:#7D7569"/>
		<stop  offset="1" style="stop-color:#E6CFB8"/>
	</linearGradient>
	<rect x="49.1" y="66.9" fill="url(#SVGID_3_)" width="29.9" height="31.3"/>
	<circle fill="#333333" cx="51.4" cy="41.4" r="21.2"/>
	<rect x="51.4" y="26.5" fill="#002C59" width="25.4" height="24.5"/>
	<polygon fill="#333333" points="51.4,26.5 51.4,66.8 91.8,66.8 91.8,41.5 76.7,26.5 	"/>
	<path fill="#E6CFB8" d="M79,47.7c-3.5,0-6.3,2.8-6.4,6.3L60.1,41.5H36.3v31.8v0l12.8,12.8h17.1l19.2-19.2V54.1
		C85.4,50.6,82.5,47.7,79,47.7z"/>
	<rect x="66.1" y="38.1" fill="#333333" width="6.5" height="28.8"/>
	<linearGradient id="SVGID_4_" gradientUnits="userSpaceOnUse" x1="55.9009" y1="90.4271" x2="33.975" y2="112.353">
		<stop  offset="0" style="stop-color:#7F3A14"/>
		<stop  offset="1" style="stop-color:#EA6911"/>
	</linearGradient>
	<rect x="31.9" y="92.5" fill="url(#SVGID_4_)" width="26.1" height="17.7"/>
	<rect x="10.8" y="105.3" fill="#EFEFEC" width="25.5" height="22.7"/>
	<path fill="#EFEFEC" d="M36.3,79.7c-14.1,0-25.5,11.4-25.5,25.5h25.5V79.7z"/>
	<path fill="#333333" d="M54.1,41.4c-4.6,4.6-10.9,7.4-17.8,7.4l-1-8.4L54.1,41.4z"/>
	<linearGradient id="SVGID_5_" gradientUnits="userSpaceOnUse" x1="85.3598" y1="101.39" x2="49.0533" y2="101.39">
		<stop  offset="0" style="stop-color:#7F3A14"/>
		<stop  offset="1" style="stop-color:#EA6911"/>
	</linearGradient>
	<path fill="url(#SVGID_5_)" d="M85.3,92.5H57.9c-4.9,0-8.9,4-8.9,8.9v8.9h36.3L85.3,92.5z"/>
	<path fill="#EFEFEC" d="M97.3,79.7L49.1,128h68.2V99.7C117.2,88.7,108.3,79.7,97.3,79.7z"/>
	<path fill="#333333" d="M95.9,102.7c-0.2,3.9-3.5,7.1-7.4,7.1c-4,0-7.2-3.1-7.4-7.1c-0.9,1.4-1.4,3-1.4,4.8c0,4.9,4,8.9,8.9,8.9
		s8.9-4,8.9-8.9C97.3,105.7,96.8,104.1,95.9,102.7z"/>
	<circle fill="#333333" cx="88.4" cy="102.3" r="3.6"/>
</g>
</svg>
