<?xml version="1.0" encoding="utf-8"?>
<!-- Generator: Adobe Illustrator 18.1.1, SVG Export Plug-In . SVG Version: 6.00 Build 0)  -->
<svg version="1.1" id="Layer_1" xmlns="http://www.w3.org/2000/svg" xmlns:xlink="http://www.w3.org/1999/xlink" x="0px" y="0px"
	 viewBox="0 0 128 128" enable-background="new 0 0 128 128" xml:space="preserve">
<linearGradient id="SVGID_1_" gradientUnits="userSpaceOnUse" x1="6.276696e-08" y1="128" x2="128" y2="2.260112e-07">
	<stop  offset="0" style="stop-color:#00456E"/>
	<stop  offset="1" style="stop-color:#69D1CA"/>
</linearGradient>
<rect fill="url(#SVGID_1_)" width="128" height="128"/>
<linearGradient id="SVGID_2_" gradientUnits="userSpaceOnUse" x1="128" y1="110.3554" x2="1.978144e-06" y2="110.3554">
	<stop  offset="0" style="stop-color:#00456E"/>
	<stop  offset="1" style="stop-color:#69D1CA"/>
</linearGradient>
<rect y="92.7" fill="url(#SVGID_2_)" width="128" height="35.3"/>
<polygon fill="#69D1CA" points="34.9,44.5 26.2,53.2 43.7,53.2 "/>
<path fill="#69D1CA" d="M63.8,16.4L35.5,44.7c0,0,0,0,0,0C35.5,60.3,48.2,73,63.8,73c15.6,0,28.3-12.7,28.3-28.3
	C92.1,29.1,79.4,16.4,63.8,16.4z"/>
<linearGradient id="SVGID_3_" gradientUnits="userSpaceOnUse" x1="84.4777" y1="47.6352" x2="34.5454" y2="47.6323" gradientTransform="matrix(1 -5.767217e-05 5.767217e-05 1 4.019723e-02 -0.1459)">
	<stop  offset="0" style="stop-color:#00456E"/>
	<stop  offset="1" style="stop-color:#69D1CA"/>
</linearGradient>
<circle fill="url(#SVGID_3_)" cx="59.6" cy="47.5" r="25"/>
<rect x="48.2" y="99.6" fill="#00456E" width="33.8" height="9.5"/>
<rect x="42.9" y="109.1" fill="#69D1CA" width="44.4" height="5.2"/>
<linearGradient id="SVGID_4_" gradientUnits="userSpaceOnUse" x1="48.337" y1="70.4739" x2="88.3118" y2="70.4739">
	<stop  offset="0" style="stop-color:#00456E"/>
	<stop  offset="1" style="stop-color:#69D1CA"/>
</linearGradient>
<rect x="48.3" y="53.2" fill="url(#SVGID_4_)" width="40" height="34.5"/>
<linearGradient id="SVGID_5_" gradientUnits="userSpaceOnUse" x1="55.4061" y1="80.6589" x2="29.2402" y2="54.493">
	<stop  offset="0" style="stop-color:#00456E"/>
	<stop  offset="1" style="stop-color:#69D1CA"/>
</linearGradient>
<path fill="url(#SVGID_5_)" d="M30.6,53.2v6.7c0,10.1,3.9,20.2,11.6,27.9h6.2V53.2L30.6,53.2z"/>
<linearGradient id="SVGID_6_" gradientUnits="userSpaceOnUse" x1="26.1532" y1="56.4595" x2="48.2746" y2="56.4595">
	<stop  offset="0" style="stop-color:#00456E"/>
	<stop  offset="1" style="stop-color:#69D1CA"/>
</linearGradient>
<path fill="url(#SVGID_6_)" d="M48.3,53.2L37.2,64.3L26.2,53.2C32.3,47.1,42.2,47.1,48.3,53.2z"/>
<circle fill="#69D1CA" cx="37.2" cy="59.8" r="6.7"/>
<circle fill="#00456E" cx="37.2" cy="59.8" r="1.7"/>
<linearGradient id="SVGID_7_" gradientUnits="userSpaceOnUse" x1="88.3118" y1="93.6555" x2="42.1134" y2="93.6555">
	<stop  offset="0" style="stop-color:#00456E"/>
	<stop  offset="1" style="stop-color:#69D1CA"/>
</linearGradient>
<path fill="url(#SVGID_7_)" d="M42.1,87.7v6c0,3.2,2.6,5.8,5.8,5.8h40.4V87.7H42.1z"/>
<rect x="42.1" y="83.4" fill="#00456E" width="12.4" height="4.3"/>
<linearGradient id="SVGID_8_" gradientUnits="userSpaceOnUse" x1="48.2746" y1="56.4595" x2="70.396" y2="56.4595">
	<stop  offset="0" style="stop-color:#00456E"/>
	<stop  offset="1" style="stop-color:#69D1CA"/>
</linearGradient>
<path fill="url(#SVGID_8_)" d="M48.3,53.2l11.1,11.1l11.1-11.1C64.3,47.1,54.4,47.1,48.3,53.2z"/>
<linearGradient id="SVGID_9_" gradientUnits="userSpaceOnUse" x1="51.3904" y1="53.1795" x2="51.3904" y2="74.2126">
	<stop  offset="0" style="stop-color:#00456E"/>
	<stop  offset="1" style="stop-color:#69D1CA"/>
</linearGradient>
<polygon fill="url(#SVGID_9_)" points="54.4,59.2 48.3,53.2 48.3,59.2 48.3,68 54.4,74.2 54.4,59.2 "/>
<polygon fill="#69D1CA" points="48.3,77.3 42.2,83.4 54.5,83.4 "/>
<linearGradient id="SVGID_10_" gradientUnits="userSpaceOnUse" x1="88.312" y1="87.728" x2="88.312" y2="44.6712">
	<stop  offset="0" style="stop-color:#00456E"/>
	<stop  offset="1" style="stop-color:#69D1CA"/>
</linearGradient>
<rect x="84.5" y="44.7" fill="url(#SVGID_10_)" width="7.6" height="43.1"/>
<linearGradient id="SVGID_11_" gradientUnits="userSpaceOnUse" x1="61.629" y1="62.1335" x2="51.9657" y2="71.7968">
	<stop  offset="0" style="stop-color:#00456E"/>
	<stop  offset="1" style="stop-color:#69D1CA"/>
</linearGradient>
<polygon fill="url(#SVGID_11_)" points="54.4,64.5 54.4,74.2 64,64.5 "/>
<circle fill="#69D1CA" cx="59.3" cy="59.8" r="6.7"/>
<circle fill="#00456E" cx="59.3" cy="59.8" r="1.7"/>
<circle fill="#69D1CA" cx="88.3" cy="92.8" r="6.8"/>
</svg>
