<?xml version="1.0" encoding="utf-8"?>
<!-- Generator: Adobe Illustrator 18.1.1, SVG Export Plug-In . SVG Version: 6.00 Build 0)  -->
<svg version="1.1" id="Layer_1" xmlns="http://www.w3.org/2000/svg" xmlns:xlink="http://www.w3.org/1999/xlink" x="0px" y="0px"
	 viewBox="0 0 128 128" enable-background="new 0 0 128 128" xml:space="preserve">
<linearGradient id="SVGID_1_" gradientUnits="userSpaceOnUse" x1="-7.421477e-10" y1="-8.175539e-06" x2="128" y2="128">
	<stop  offset="0" style="stop-color:#4E0375"/>
	<stop  offset="1" style="stop-color:#FF5B3A"/>
</linearGradient>
<rect x="0" y="0" fill="url(#SVGID_1_)" width="128" height="128"/>
<linearGradient id="SVGID_2_" gradientUnits="userSpaceOnUse" x1="104.863" y1="151.137" x2="23.137" y2="69.411">
	<stop  offset="0" style="stop-color:#DCDCDC"/>
	<stop  offset="1" style="stop-color:#FFFFFF"/>
</linearGradient>
<rect x="0" y="92.5" fill="url(#SVGID_2_)" width="128" height="35.5"/>
<polygon fill="#222222" points="23.6,76.7 33.1,86.2 33.1,67.2 "/>
<linearGradient id="SVGID_3_" gradientUnits="userSpaceOnUse" x1="85.6779" y1="70.5363" x2="40.4069" y2="25.2653">
	<stop  offset="0" style="stop-color:#DCDCDC"/>
	<stop  offset="1" style="stop-color:#FFFFFF"/>
</linearGradient>
<circle fill="url(#SVGID_3_)" cx="63" cy="47.9" r="32"/>
<polygon fill="#222222" points="95.1,47.9 31,47.9 31,103.8 74.8,103.8 95.1,52 "/>
<polygon fill="#FFFFFF" points="23.6,96.2 31,103.7 36.3,89.5 23.6,76.7 "/>
<linearGradient id="SVGID_4_" gradientUnits="userSpaceOnUse" x1="88.559" y1="100.8972" x2="66.3471" y2="62.4252">
	<stop  offset="0" style="stop-color:#DCDCDC"/>
	<stop  offset="1" style="stop-color:#FFFFFF"/>
</linearGradient>
<path fill="url(#SVGID_4_)" d="M100.9,68.5L100.9,68.5l-5.8-5.8V52H84.4v25H48.3l-1,12.4l18.3,14.3c4.7,4.7,12.4,4.7,17.1,0
	l18.2-18.2C105.6,80.9,105.6,73.2,100.9,68.5z"/>
<linearGradient id="SVGID_5_" gradientUnits="userSpaceOnUse" x1="79.7454" y1="47.3878" x2="54.2025" y2="72.9306">
	<stop  offset="0" style="stop-color:#DCDCDC"/>
	<stop  offset="1" style="stop-color:#FFFFFF"/>
</linearGradient>
<path fill="url(#SVGID_5_)" d="M84.4,52c0,3.8-1.5,7.7-4.4,10.6c-5.8,5.8-15.3,5.8-21.2,0L48.3,52l-2,7.1l2,7.9l19.4,19.4l16.7-16.7
	V52z"/>
<polygon fill="#FFFFFF" points="31,69.2 31,69.2 31,103.7 48.3,89.5 48.3,52 "/>
<polygon fill="#222222" points="95.1,69.1 84.4,58.4 84.4,69.6 67.6,86.4 72.7,91.4 "/>
<path fill="#222222" d="M65.5,84.2L48.3,67L31,84.2C40.5,74.7,56,74.7,65.5,84.2z"/>
<linearGradient id="SVGID_6_" gradientUnits="userSpaceOnUse" x1="31.0396" y1="95.2133" x2="65.467" y2="95.2133">
	<stop  offset="0" style="stop-color:#DCDCDC"/>
	<stop  offset="1" style="stop-color:#FFFFFF"/>
</linearGradient>
<path fill="url(#SVGID_6_)" d="M65.5,103.8L48.3,86.6L31,103.8C40.5,94.3,56,94.3,65.5,103.8z"/>
</svg>
