<?xml version="1.0" encoding="utf-8"?>
<!-- Generator: Adobe Illustrator 18.1.1, SVG Export Plug-In . SVG Version: 6.00 Build 0)  -->
<svg version="1.1" id="Layer_1" xmlns="http://www.w3.org/2000/svg" xmlns:xlink="http://www.w3.org/1999/xlink" x="0px" y="0px"
	 viewBox="0 0 128 128" enable-background="new 0 0 128 128" xml:space="preserve">
<linearGradient id="SVGID_1_" gradientUnits="userSpaceOnUse" x1="1.230619e-07" y1="128" x2="128" y2="-3.922163e-06">
	<stop  offset="0" style="stop-color:#002C59"/>
	<stop  offset="7.491016e-02" style="stop-color:#10456A"/>
	<stop  offset="0.2046" style="stop-color:#286A82"/>
	<stop  offset="0.3404" style="stop-color:#3C8996"/>
	<stop  offset="0.4821" style="stop-color:#4BA1A6"/>
	<stop  offset="0.6321" style="stop-color:#56B2B1"/>
	<stop  offset="0.796" style="stop-color:#5CBCB8"/>
	<stop  offset="1" style="stop-color:#5EBFBA"/>
</linearGradient>
<rect x="0" y="0" fill="url(#SVGID_1_)" width="128" height="128"/>
<linearGradient id="SVGID_2_" gradientUnits="userSpaceOnUse" x1="128" y1="110.7521" x2="8.557894e-04" y2="110.7521">
	<stop  offset="0" style="stop-color:#7D7569"/>
	<stop  offset="1" style="stop-color:#EFEFEC"/>
</linearGradient>
<rect x="0" y="93.5" fill="url(#SVGID_2_)" width="128" height="34.5"/>
<polygon fill="#7F3A14" points="85.4,77 67.3,95 103.4,95 "/>
<circle fill="#7F3A14" cx="85.4" cy="67" r="17.8"/>
<circle fill="#7F3A14" cx="54.1" cy="48.8" r="25.2"/>
<linearGradient id="SVGID_3_" gradientUnits="userSpaceOnUse" x1="40.302" y1="38.1723" x2="87.6978" y2="85.5681">
	<stop  offset="0" style="stop-color:#7D7569"/>
	<stop  offset="1" style="stop-color:#E6CFB8"/>
</linearGradient>
<rect x="49" y="29.4" fill="url(#SVGID_3_)" width="29.9" height="64.9"/>
<path fill="#7F3A14" d="M85.4,18.5c-9.8,0-17.8,8-17.8,17.8h0l17.8,17.8l17.8-17.8C103.2,26.5,95.2,18.5,85.4,18.5z"/>
<circle fill="#7F3A14" cx="63.8" cy="45.1" r="21.5"/>
<rect x="54.1" y="23.6" fill="#7F3A14" width="9.7" height="21.5"/>
<polygon fill="#E6CFB8" points="36.3,41.5 36.3,73.3 36.3,73.4 49.1,86.1 66.2,86.1 79,73.3 79,60.4 60.1,41.5 "/>
<polygon fill="#E6CFB8" points="28.5,92.5 64,128 99.5,92.5 "/>
<linearGradient id="SVGID_4_" gradientUnits="userSpaceOnUse" x1="44.4927" y1="135.329" x2="83.5082" y2="96.3135">
	<stop  offset="0" style="stop-color:#7D7569"/>
	<stop  offset="1" style="stop-color:#EFEFEC"/>
</linearGradient>
<rect x="37.2" y="103.6" fill="url(#SVGID_4_)" width="53.7" height="24.4"/>
<linearGradient id="SVGID_5_" gradientUnits="userSpaceOnUse" x1="-124.601" y1="110.26" x2="-78.2635" y2="110.26" gradientTransform="matrix(1 0 0 1 124.6019 0)">
	<stop  offset="0" style="stop-color:#7D7569"/>
	<stop  offset="1" style="stop-color:#EFEFEC"/>
</linearGradient>
<polygon fill="url(#SVGID_5_)" points="10.9,92.5 0,92.5 35.5,128 46.3,128 "/>
<linearGradient id="SVGID_6_" gradientUnits="userSpaceOnUse" x1="18.716" y1="110.26" x2="65.0536" y2="110.26">
	<stop  offset="0" style="stop-color:#7D7569"/>
	<stop  offset="1" style="stop-color:#EFEFEC"/>
</linearGradient>
<polygon fill="url(#SVGID_6_)" points="29.6,92.5 18.7,92.5 54.2,128 65.1,128 "/>
<linearGradient id="SVGID_7_" gradientUnits="userSpaceOnUse" x1="-7018.3252" y1="110.26" x2="-6971.9878" y2="110.26" gradientTransform="matrix(-1 0 0 1 -6890.3252 0)">
	<stop  offset="0" style="stop-color:#7D7569"/>
	<stop  offset="1" style="stop-color:#EFEFEC"/>
</linearGradient>
<polygon fill="url(#SVGID_7_)" points="117.1,92.5 128,92.5 92.5,128 81.7,128 "/>
<linearGradient id="SVGID_8_" gradientUnits="userSpaceOnUse" x1="-6999.6104" y1="110.26" x2="-6953.2725" y2="110.26" gradientTransform="matrix(-1 0 0 1 -6890.3252 0)">
	<stop  offset="0" style="stop-color:#7D7569"/>
	<stop  offset="1" style="stop-color:#EFEFEC"/>
</linearGradient>
<polygon fill="url(#SVGID_8_)" points="98.4,92.5 109.3,92.5 73.8,128 62.9,128 "/>
<path fill="#E6CFB8" d="M85.4,54.1c0-3.5-2.9-6.4-6.4-6.4c-3.5,0-6.4,2.9-6.4,6.4h0v25.6l12.8-12.8V54.1L85.4,54.1z"/>
<path fill="#7F3A14" d="M66.2,41.5h6.4v35.6h0c0,5.6-2.1,11.2-6.4,15.4L66.2,41.5z"/>
<linearGradient id="SVGID_9_" gradientUnits="userSpaceOnUse" x1="118.1424" y1="110.26" x2="72.8049" y2="110.26">
	<stop  offset="0" style="stop-color:#7D7569"/>
	<stop  offset="1" style="stop-color:#EFEFEC"/>
</linearGradient>
<polygon fill="url(#SVGID_9_)" points="108.3,92.5 118.1,92.5 82.7,128 72.8,128 "/>
<linearGradient id="SVGID_10_" gradientUnits="userSpaceOnUse" x1="-114.7434" y1="110.26" x2="-69.4059" y2="110.26" gradientTransform="matrix(1 0 0 1 124.6019 0)">
	<stop  offset="0" style="stop-color:#7D7569"/>
	<stop  offset="1" style="stop-color:#EFEFEC"/>
</linearGradient>
<polygon fill="url(#SVGID_10_)" points="19.7,92.5 9.9,92.5 45.3,128 55.2,128 "/>
</svg>
