<?xml version="1.0" encoding="utf-8"?>
<!-- Generator: Adobe Illustrator 18.1.1, SVG Export Plug-In . SVG Version: 6.00 Build 0)  -->
<svg version="1.1" id="Layer_1" xmlns="http://www.w3.org/2000/svg" xmlns:xlink="http://www.w3.org/1999/xlink" x="0px" y="0px"
	 viewBox="0 0 128 128" enable-background="new 0 0 128 128" xml:space="preserve">
<g>
	<linearGradient id="SVGID_1_" gradientUnits="userSpaceOnUse" x1="128" y1="128" x2="-3.579696e-08" y2="2.833340e-08">
		<stop  offset="0" style="stop-color:#333333"/>
		<stop  offset="1" style="stop-color:#BDBDBD"/>
	</linearGradient>
	<rect fill="url(#SVGID_1_)" width="128" height="128"/>
	<linearGradient id="SVGID_2_" gradientUnits="userSpaceOnUse" x1="140.6016" y1="54.5527" x2="54.5527" y2="140.6016">
		<stop  offset="0" style="stop-color:#333333"/>
		<stop  offset="1" style="stop-color:#BDBDBD"/>
	</linearGradient>
	<path fill="url(#SVGID_2_)" d="M128,42c-47.5,0-86,38.5-86,86h86V42z"/>
	<linearGradient id="SVGID_3_" gradientUnits="userSpaceOnUse" x1="36.9822" y1="31.0246" x2="83.68" y2="31.0246">
		<stop  offset="0" style="stop-color:#333333"/>
		<stop  offset="1" style="stop-color:#BDBDBD"/>
	</linearGradient>
	<polygon fill="url(#SVGID_3_)" points="74,21.3 46.7,21.3 37,31 46.7,40.7 74,40.7 83.7,31 	"/>
	<circle fill="#333333" cx="83.5" cy="77.6" r="19.4"/>
	<polygon fill="#333333" points="56.3,97 37,77.7 37,50.3 56.3,31 83.6,31 102.9,50.3 102.9,77.7 83.6,97 	"/>
	<polygon fill="#333333" points="37,31 27.3,40.7 27.3,54.3 67.6,54.3 67.6,31 	"/>
	<circle fill="#BDBDBD" cx="49.2" cy="56.4" r="17.3"/>
	<linearGradient id="SVGID_4_" gradientUnits="userSpaceOnUse" x1="40.8903" y1="119.6773" x2="88.7031" y2="71.8645">
		<stop  offset="0" style="stop-color:#333333"/>
		<stop  offset="1" style="stop-color:#BDBDBD"/>
	</linearGradient>
	<rect x="49.2" y="63.5" fill="url(#SVGID_4_)" width="31.2" height="64.5"/>
	<rect x="49.2" y="44.1" fill="#BDBDBD" width="21.3" height="35.9"/>
	
		<linearGradient id="SVGID_5_" gradientUnits="userSpaceOnUse" x1="98.5209" y1="2163.2141" x2="98.5209" y2="2196.7922" gradientTransform="matrix(-1 0 0 -1 168.7486 2260.334)">
		<stop  offset="0" style="stop-color:#333333"/>
		<stop  offset="1" style="stop-color:#BDBDBD"/>
	</linearGradient>
	<circle fill="url(#SVGID_5_)" cx="70.2" cy="80.3" r="16.8"/>
	
		<linearGradient id="SVGID_6_" gradientUnits="userSpaceOnUse" x1="84.4044" y1="2182.9021" x2="111.9782" y2="2210.4758" gradientTransform="matrix(-1 0 0 -1 168.7486 2260.334)">
		<stop  offset="0" style="stop-color:#333333"/>
		<stop  offset="1" style="stop-color:#BDBDBD"/>
	</linearGradient>
	<circle fill="url(#SVGID_6_)" cx="70.6" cy="63.6" r="19.5"/>
	
		<linearGradient id="SVGID_7_" gradientUnits="userSpaceOnUse" x1="124.9094" y1="2199.6323" x2="138.6233" y2="2213.3462" gradientTransform="matrix(-1 0 0 -1 168.7486 2260.334)">
		<stop  offset="0" style="stop-color:#333333"/>
		<stop  offset="1" style="stop-color:#BDBDBD"/>
	</linearGradient>
	<circle fill="url(#SVGID_7_)" cx="37" cy="53.8" r="9.7"/>
	
		<linearGradient id="SVGID_8_" gradientUnits="userSpaceOnUse" x1="91.4291" y1="2187.095" x2="91.4291" y2="2206.4893" gradientTransform="matrix(-1 0 0 -1 168.7486 2260.334)">
		<stop  offset="0" style="stop-color:#333333"/>
		<stop  offset="1" style="stop-color:#BDBDBD"/>
	</linearGradient>
	<circle fill="url(#SVGID_8_)" cx="77.3" cy="63.5" r="9.7"/>
	
		<linearGradient id="SVGID_9_" gradientUnits="userSpaceOnUse" x1="91.4292" y1="2196.7922" x2="91.4292" y2="2187.095" gradientTransform="matrix(-1 0 0 -1 168.7486 2260.334)">
		<stop  offset="0" style="stop-color:#333333"/>
		<stop  offset="1" style="stop-color:#BDBDBD"/>
	</linearGradient>
	<path fill="url(#SVGID_9_)" d="M77.3,73.2c5.4,0,9.7-4.3,9.7-9.7H67.6C67.6,68.9,72,73.2,77.3,73.2z"/>
	<linearGradient id="SVGID_10_" gradientUnits="userSpaceOnUse" x1="32.1336" y1="73.2391" x2="32.1336" y2="53.8447">
		<stop  offset="0" style="stop-color:#333333"/>
		<stop  offset="1" style="stop-color:#BDBDBD"/>
	</linearGradient>
	<path fill="url(#SVGID_10_)" d="M27.3,53.8v19.4c5.4,0,9.7-4.3,9.7-9.7C37,58.2,32.6,53.8,27.3,53.8z"/>
	<linearGradient id="SVGID_11_" gradientUnits="userSpaceOnUse" x1="32.4985" y1="78.4525" x2="42.9256" y2="68.0255">
		<stop  offset="0" style="stop-color:#333333"/>
		<stop  offset="1" style="stop-color:#BDBDBD"/>
	</linearGradient>
	<polygon fill="url(#SVGID_11_)" points="27.3,73.2 37.7,83.7 37.7,62.8 	"/>
	<linearGradient id="SVGID_12_" gradientUnits="userSpaceOnUse" x1="32.1336" y1="63.5419" x2="32.1336" y2="73.2391">
		<stop  offset="0" style="stop-color:#333333"/>
		<stop  offset="1" style="stop-color:#BDBDBD"/>
	</linearGradient>
	<path fill="url(#SVGID_12_)" d="M27.3,63.5v9.7h0c5.4,0,9.7-4.3,9.7-9.7H27.3z"/>
	<polygon fill="#BDBDBD" points="49.2,104.4 37,116.7 37,92.2 	"/>
	<linearGradient id="SVGID_13_" gradientUnits="userSpaceOnUse" x1="49.2412" y1="92.2016" x2="49.2412" y2="63.5419">
		<stop  offset="0" style="stop-color:#333333"/>
		<stop  offset="1" style="stop-color:#BDBDBD"/>
	</linearGradient>
	<rect x="37" y="63.5" fill="url(#SVGID_13_)" width="24.5" height="28.7"/>
	<rect x="42" y="92.2" fill="#BDBDBD" width="19.5" height="35.8"/>
	<polygon fill="#BDBDBD" points="42,104.4 61.4,104.4 61.4,84.9 	"/>
	
		<linearGradient id="SVGID_14_" gradientUnits="userSpaceOnUse" x1="119.5356" y1="2155.9016" x2="119.5356" y2="2168.1323" gradientTransform="matrix(-1 0 0 -1 168.7486 2260.334)">
		<stop  offset="0" style="stop-color:#333333"/>
		<stop  offset="1" style="stop-color:#BDBDBD"/>
	</linearGradient>
	<path fill="url(#SVGID_14_)" d="M49.2,104.4c6.8,0,12.2-5.5,12.2-12.2H37C37,99,42.5,104.4,49.2,104.4z"/>
	<circle fill="#333333" cx="61.5" cy="67.6" r="4.1"/>
	<rect x="37" y="63.5" fill="#333333" width="24.5" height="8.1"/>
	<linearGradient id="SVGID_15_" gradientUnits="userSpaceOnUse" x1="49.2412" y1="75.8008" x2="49.2412" y2="44.1475">
		<stop  offset="0" style="stop-color:#333333"/>
		<stop  offset="1" style="stop-color:#BDBDBD"/>
	</linearGradient>
	<polygon fill="url(#SVGID_15_)" points="37,44.1 37,63.5 49.2,75.8 61.5,63.5 61.5,44.1 	"/>
</g>
</svg>
