<?xml version="1.0" encoding="utf-8"?>
<!-- Generator: Adobe Illustrator 18.1.1, SVG Export Plug-In . SVG Version: 6.00 Build 0)  -->
<svg version="1.1" id="Layer_1" xmlns="http://www.w3.org/2000/svg" xmlns:xlink="http://www.w3.org/1999/xlink" x="0px" y="0px"
	 viewBox="0 0 128 128" enable-background="new 0 0 128 128" xml:space="preserve">
<linearGradient id="SVGID_1_" gradientUnits="userSpaceOnUse" x1="127.9991" y1="128" x2="-9.264016e-04" y2="-3.253888e-09">
	<stop  offset="0" style="stop-color:#002C59"/>
	<stop  offset="1" style="stop-color:#5EBFBA"/>
</linearGradient>
<rect x="0" fill="url(#SVGID_1_)" width="128" height="128"/>
<g>
	<linearGradient id="SVGID_2_" gradientUnits="userSpaceOnUse" x1="22.7697" y1="47.0881" x2="49.8215" y2="74.1399">
		<stop  offset="0" style="stop-color:#002C59"/>
		<stop  offset="1" style="stop-color:#5EBFBA"/>
	</linearGradient>
	<circle fill="url(#SVGID_2_)" cx="36.3" cy="60.6" r="19.1"/>
	<rect x="0" y="92.5" fill="#5EBFBA" width="128" height="35.5"/>
	<linearGradient id="SVGID_3_" gradientUnits="userSpaceOnUse" x1="85.7716" y1="54.9464" x2="42.2266" y2="98.4913">
		<stop  offset="0" style="stop-color:#002C59"/>
		<stop  offset="1" style="stop-color:#5EBFBA"/>
	</linearGradient>
	<rect x="49.1" y="48.1" fill="url(#SVGID_3_)" width="29.9" height="57.2"/>
	<linearGradient id="SVGID_4_" gradientUnits="userSpaceOnUse" x1="63.9991" y1="45.2323" x2="63.9991" y2="86.1211">
		<stop  offset="0" style="stop-color:#002C59"/>
		<stop  offset="1" style="stop-color:#5EBFBA"/>
	</linearGradient>
	<rect x="49.1" y="45.2" fill="url(#SVGID_4_)" width="29.9" height="40.9"/>
	<path fill="#002C59" d="M36.2,41.5v12.8l26.2,19l-8-50C44.4,23.3,36.2,31.4,36.2,41.5z"/>
	<linearGradient id="SVGID_5_" gradientUnits="userSpaceOnUse" x1="54.9445" y1="22.7804" x2="92.3378" y2="60.1737">
		<stop  offset="0" style="stop-color:#002C59"/>
		<stop  offset="1" style="stop-color:#5EBFBA"/>
	</linearGradient>
	<path fill="url(#SVGID_5_)" d="M67.2,23.3H54.4v18.2l30.9,25.7V41.5C85.4,31.4,77.2,23.3,67.2,23.3z"/>
	<polygon fill="#5EBFBA" points="59.7,41.5 49.1,41.5 36.3,54.3 36.3,73.3 36.3,73.4 49.1,86.1 66.2,86.1 85.2,67 	"/>
	<g>
		<rect x="77.4" y="47.1" fill="#002C59" width="27.1" height="27.1"/>
		<linearGradient id="SVGID_6_" gradientUnits="userSpaceOnUse" x1="103.8139" y1="51.8352" x2="86.2216" y2="69.4274">
			<stop  offset="0" style="stop-color:#002C59"/>
			<stop  offset="1" style="stop-color:#5EBFBA"/>
		</linearGradient>
		<rect x="84.2" y="53.9" fill="url(#SVGID_6_)" width="21.6" height="13.6"/>
		<linearGradient id="SVGID_7_" gradientUnits="userSpaceOnUse" x1="81.0321" y1="70.4983" x2="96.0792" y2="44.4358">
			<stop  offset="0" style="stop-color:#002C59"/>
			<stop  offset="1" style="stop-color:#5EBFBA"/>
		</linearGradient>
		<path fill="url(#SVGID_7_)" d="M91,67.4c-3.7,0-6.8-3-6.8-6.8v-6.8l9.6-9.6L91,41.5L71.8,60.6l2.8,2.8l2.8-2.8l0,0
			c0,7.5,6.1,13.5,13.5,13.5v0h0l6.8-6.8H91z"/>
		<linearGradient id="SVGID_8_" gradientUnits="userSpaceOnUse" x1="81.4048" y1="47.088" x2="81.4048" y2="79.7425">
			<stop  offset="0" style="stop-color:#002C59"/>
			<stop  offset="1" style="stop-color:#5EBFBA"/>
		</linearGradient>
		<path fill="url(#SVGID_8_)" d="M77.4,60.6V47.1c-3.5,3.5-5.6,8.2-5.6,13.5c0,10.6,8.6,19.1,19.1,19.1c0,0,0,0,0,0v-5.6
			C83.5,74.1,77.4,68.1,77.4,60.6z"/>
		<linearGradient id="SVGID_9_" gradientUnits="userSpaceOnUse" x1="98.0577" y1="41.4853" x2="98.0577" y2="79.7424">
			<stop  offset="0" style="stop-color:#002C59"/>
			<stop  offset="1" style="stop-color:#5EBFBA"/>
		</linearGradient>
		<path fill="url(#SVGID_9_)" d="M91,41.5c0,2.8,0,5.6,0,5.6c7.5,0,13.5,6.1,13.5,13.5h0L86,79.1c1.6,0.4,3.2,0.7,5,0.7
			c10.6,0,19.1-8.6,19.1-19.1C110.1,50,101.5,41.5,91,41.5z"/>
	</g>
</g>
</svg>
