<?xml version="1.0" encoding="utf-8"?>
<!-- Generator: Adobe Illustrator 18.1.1, SVG Export Plug-In . SVG Version: 6.00 Build 0)  -->
<svg version="1.1" id="Layer_1" xmlns="http://www.w3.org/2000/svg" xmlns:xlink="http://www.w3.org/1999/xlink" x="0px" y="0px"
	 viewBox="0 0 128 128" enable-background="new 0 0 128 128" xml:space="preserve">
<linearGradient id="SVGID_1_" gradientUnits="userSpaceOnUse" x1="128.0004" y1="128" x2="4.294015e-04" y2="-7.185078e-07">
	<stop  offset="0" style="stop-color:#002C59"/>
	<stop  offset="7.491016e-02" style="stop-color:#10456A"/>
	<stop  offset="0.2046" style="stop-color:#286A82"/>
	<stop  offset="0.3404" style="stop-color:#3C8996"/>
	<stop  offset="0.4821" style="stop-color:#4BA1A6"/>
	<stop  offset="0.6321" style="stop-color:#56B2B1"/>
	<stop  offset="0.796" style="stop-color:#5CBCB8"/>
	<stop  offset="1" style="stop-color:#5EBFBA"/>
</linearGradient>
<rect x="0" fill="url(#SVGID_1_)" width="128" height="128"/>
<linearGradient id="SVGID_2_" gradientUnits="userSpaceOnUse" x1="1.293527e-03" y1="110.26" x2="128.0004" y2="110.26">
	<stop  offset="0" style="stop-color:#E6711B"/>
	<stop  offset="1" style="stop-color:#FF9B0B"/>
</linearGradient>
<rect x="0" y="92.5" fill="url(#SVGID_2_)" width="128" height="35.5"/>
<polygon fill="#FF9B0B" points="89.9,92.5 64,66.6 38.1,92.5 "/>
<rect x="44.3" y="92.5" fill="#222222" width="40.1" height="35.5"/>
<linearGradient id="SVGID_3_" gradientUnits="userSpaceOnUse" x1="64.0004" y1="72.1391" x2="64.0004" y2="107.4651">
	<stop  offset="0" style="stop-color:#333333"/>
	<stop  offset="1" style="stop-color:#7D7569"/>
</linearGradient>
<path fill="url(#SVGID_3_)" d="M78.9,72.1H49.1v20.4l0,0v0c0,8.3,6.7,14.9,14.9,14.9s14.9-6.7,14.9-14.9l0,0h0V72.1z"/>
<linearGradient id="SVGID_4_" gradientUnits="userSpaceOnUse" x1="43.5666" y1="127.9992" x2="43.5666" y2="91.5201">
	<stop  offset="0" style="stop-color:#E6711B"/>
	<stop  offset="1" style="stop-color:#FF9B0B"/>
</linearGradient>
<polygon fill="url(#SVGID_4_)" points="49.1,128 38.1,128 38.1,92.5 49.1,91.5 "/>
<linearGradient id="SVGID_5_" gradientUnits="userSpaceOnUse" x1="84.4342" y1="127.9992" x2="84.4342" y2="91.5201">
	<stop  offset="0" style="stop-color:#E6711B"/>
	<stop  offset="1" style="stop-color:#FF9B0B"/>
</linearGradient>
<polygon fill="url(#SVGID_5_)" points="89.9,128 78.9,128 78.9,91.5 89.9,92.5 "/>
<circle fill="#222222" cx="54.1" cy="41.5" r="25.2"/>
<circle fill="#222222" cx="64.4" cy="45.9" r="29.7"/>
<linearGradient id="SVGID_6_" gradientUnits="userSpaceOnUse" x1="74.4568" y1="40.5749" x2="38.9817" y2="76.05">
	<stop  offset="0" style="stop-color:#333333"/>
	<stop  offset="1" style="stop-color:#7D7569"/>
</linearGradient>
<path fill="url(#SVGID_6_)" d="M79,47.7c-3.5,0-6.3,2.8-6.4,6.3L60.1,41.5H36.3v31.8v0l12.8,12.8h17.1l19.2-19.2V54.1
	C85.4,50.6,82.5,47.7,79,47.7z"/>
<rect x="54.1" y="16.3" fill="#222222" width="10.2" height="16.2"/>
</svg>
