<?xml version="1.0" encoding="utf-8"?>
<!-- Generator: Adobe Illustrator 18.1.1, SVG Export Plug-In . SVG Version: 6.00 Build 0)  -->
<svg version="1.1" id="Layer_1" xmlns="http://www.w3.org/2000/svg" xmlns:xlink="http://www.w3.org/1999/xlink" x="0px" y="0px"
	 viewBox="0 0 128 128" enable-background="new 0 0 128 128" xml:space="preserve">
<g>
	<rect x="0" y="0" fill="#5EBFBA" width="128" height="128"/>
	<path fill="#333333" d="M45.7,22.8L26.9,41.5c0,17.5,14.2,31.7,31.7,31.7V22.8H45.7z"/>
	<circle fill="#333333" cx="85.4" cy="74.3" r="18.2"/>
	<linearGradient id="SVGID_1_" gradientUnits="userSpaceOnUse" x1="97.311" y1="92.4993" x2="36.2956" y2="92.4993">
		<stop  offset="0" style="stop-color:#BDBDBD"/>
		<stop  offset="1" style="stop-color:#EFEFEC"/>
	</linearGradient>
	<rect x="36.3" y="79.7" fill="url(#SVGID_1_)" width="61" height="25.5"/>
	<linearGradient id="SVGID_2_" gradientUnits="userSpaceOnUse" x1="1.781629e-03" y1="110.26" x2="128.0009" y2="110.26">
		<stop  offset="0" style="stop-color:#7F3A14"/>
		<stop  offset="1" style="stop-color:#EA6911"/>
	</linearGradient>
	<rect x="0" y="92.5" fill="url(#SVGID_2_)" width="128" height="35.5"/>
	<linearGradient id="SVGID_3_" gradientUnits="userSpaceOnUse" x1="63.9991" y1="66.6066" x2="63.9991" y2="98.2733">
		<stop  offset="0" style="stop-color:#7D7569"/>
		<stop  offset="1" style="stop-color:#E6CFB8"/>
	</linearGradient>
	<rect x="49.1" y="66.6" fill="url(#SVGID_3_)" width="29.9" height="31.7"/>
	<linearGradient id="SVGID_4_" gradientUnits="userSpaceOnUse" x1="52.8714" y1="87.3977" x2="24.8867" y2="115.3824">
		<stop  offset="0" style="stop-color:#7F3A14"/>
		<stop  offset="1" style="stop-color:#EA6911"/>
	</linearGradient>
	<rect x="19.8" y="92.5" fill="url(#SVGID_4_)" width="38.2" height="17.7"/>
	<rect x="10.8" y="105.3" fill="#EFEFEC" width="25.5" height="22.7"/>
	<path fill="#EFEFEC" d="M36.3,79.7c-14.1,0-25.5,11.4-25.5,25.5h25.5V79.7z"/>
	<linearGradient id="SVGID_5_" gradientUnits="userSpaceOnUse" x1="97.3598" y1="101.39" x2="49.0533" y2="101.39">
		<stop  offset="0" style="stop-color:#7F3A14"/>
		<stop  offset="1" style="stop-color:#EA6911"/>
	</linearGradient>
	<path fill="url(#SVGID_5_)" d="M97.3,92.5H57.9c-4.9,0-8.9,4-8.9,8.9v8.9h48.3L97.3,92.5z"/>
	<path fill="#EFEFEC" d="M97.3,79.7L49.1,128h68.2V99.7C117.2,88.7,108.3,79.7,97.3,79.7z"/>
	<path fill="#333333" d="M95.9,102.7c-0.2,3.9-3.5,7.1-7.4,7.1c-4,0-7.2-3.1-7.4-7.1c-0.9,1.4-1.4,3-1.4,4.8c0,4.9,4,8.9,8.9,8.9
		s8.9-4,8.9-8.9C97.3,105.7,96.8,104.1,95.9,102.7z"/>
	<circle fill="#333333" cx="88.4" cy="102.3" r="3.6"/>
	<polygon fill="#E6CFB8" points="55.1,36.5 36.3,55.3 36.3,73.4 36.3,73.4 49.1,86.2 66.2,86.2 79,73.4 79,60.4 	"/>
	<path fill="#333333" d="M73.2,22.8L73.2,22.8l-19.4,0v18.7c0,10.3,8.4,18.7,18.7,18.7c10.3,0,18.7-8.4,18.7-18.7
		C91.3,31.4,83.3,23.2,73.2,22.8z"/>
	<path fill="#E6CFB8" d="M85.4,54.2c0-3.5-2.9-6.4-6.4-6.4c-3.5,0-6.4,2.9-6.4,6.4h0v25.6L85.4,67V54.2L85.4,54.2z"/>
</g>
</svg>
