<?xml version="1.0" encoding="utf-8"?>
<!-- Generator: Adobe Illustrator 18.1.1, SVG Export Plug-In . SVG Version: 6.00 Build 0)  -->
<svg version="1.1" id="Layer_1" xmlns="http://www.w3.org/2000/svg" xmlns:xlink="http://www.w3.org/1999/xlink" x="0px" y="0px"
	 viewBox="0 0 128 128" enable-background="new 0 0 128 128" xml:space="preserve">
<linearGradient id="SVGID_1_" gradientUnits="userSpaceOnUse" x1="3.058034e-05" y1="2.260103e-07" x2="128" y2="128">
	<stop  offset="0" style="stop-color:#002C59"/>
	<stop  offset="1" style="stop-color:#5EBFBA"/>
</linearGradient>
<rect x="0" fill="url(#SVGID_1_)" width="128" height="128"/>
<path fill="#5EBFBA" d="M64,81.3c-26.7,0-50.2,13.6-64,34.2V128h128v-12.4C114.2,94.9,90.7,81.3,64,81.3z"/>
<path fill="#5EBFBA" d="M64,26.6c-23.6,0-42.8,19.1-42.8,42.8h85.5C106.7,45.7,87.6,26.6,64,26.6z"/>
<linearGradient id="SVGID_2_" gradientUnits="userSpaceOnUse" x1="106.7489" y1="75.3258" x2="21.2043" y2="75.3258">
	<stop  offset="0" style="stop-color:#002C59"/>
	<stop  offset="1" style="stop-color:#5EBFBA"/>
</linearGradient>
<polygon fill="url(#SVGID_2_)" points="106.7,69.3 21.2,69.3 33.2,81.3 94.7,81.3 "/>
<linearGradient id="SVGID_3_" gradientUnits="userSpaceOnUse" x1="66.4076" y1="50.3697" x2="78.1458" y2="62.1078">
	<stop  offset="0" style="stop-color:#002C59"/>
	<stop  offset="1" style="stop-color:#5EBFBA"/>
</linearGradient>
<circle fill="url(#SVGID_3_)" cx="72.3" cy="56.2" r="8.3"/>
<circle fill="#002C59" cx="72.3" cy="56.2" r="4.2"/>
<linearGradient id="SVGID_4_" gradientUnits="userSpaceOnUse" x1="86.4604" y1="29.7437" x2="41.4928" y2="29.7437">
	<stop  offset="0" style="stop-color:#002C59"/>
	<stop  offset="1" style="stop-color:#5EBFBA"/>
</linearGradient>
<path fill="url(#SVGID_4_)" d="M41.5,32.9h45c-6.5-4-14.2-6.4-22.5-6.4C55.7,26.6,48,28.9,41.5,32.9z"/>
<linearGradient id="SVGID_5_" gradientUnits="userSpaceOnUse" x1="97.8843" y1="40.0631" x2="30.0689" y2="40.0631">
	<stop  offset="0" style="stop-color:#002C59"/>
	<stop  offset="1" style="stop-color:#5EBFBA"/>
</linearGradient>
<path fill="url(#SVGID_5_)" d="M97.9,43.3c-1.8-2.3-3.8-4.5-6-6.4H36.1c-2.2,1.9-4.3,4.1-6,6.4H97.9z"/>
<circle fill="#002C59" cx="52.9" cy="47.9" r="11.1"/>
<rect x="85.1" y="60.4" fill="#002C59" width="8.9" height="8.9"/>
<rect x="97.9" y="60.4" fill="#002C59" width="4.5" height="8.9"/>
<linearGradient id="SVGID_6_" gradientUnits="userSpaceOnUse" x1="130.5583" y1="125.4417" x2="83.1068" y2="77.9902">
	<stop  offset="0" style="stop-color:#002C59"/>
	<stop  offset="1" style="stop-color:#5EBFBA"/>
</linearGradient>
<path fill="url(#SVGID_6_)" d="M78.4,82.7l45.3,45.3h4.3v-12.4C116.8,98.8,99.1,86.6,78.4,82.7z"/>
<linearGradient id="SVGID_7_" gradientUnits="userSpaceOnUse" x1="44.8469" y1="77.9905" x2="-2.5813" y2="125.4187">
	<stop  offset="0" style="stop-color:#002C59"/>
	<stop  offset="1" style="stop-color:#5EBFBA"/>
</linearGradient>
<path fill="url(#SVGID_7_)" d="M0,115.6V128h4.2l45.3-45.3C28.9,86.6,11.2,98.7,0,115.6z"/>
<linearGradient id="SVGID_8_" gradientUnits="userSpaceOnUse" x1="94.217" y1="121.737" x2="33.7362" y2="121.737">
	<stop  offset="0" style="stop-color:#002C59"/>
	<stop  offset="1" style="stop-color:#5EBFBA"/>
</linearGradient>
<path fill="url(#SVGID_8_)" d="M33.7,128h60.5c-7.7-7.7-18.4-12.5-30.2-12.5S41.5,120.3,33.7,128z"/>
</svg>
