<?xml version="1.0" encoding="utf-8"?>
<!-- Generator: Adobe Illustrator 18.1.1, SVG Export Plug-In . SVG Version: 6.00 Build 0)  -->
<svg version="1.1" id="Layer_1" xmlns="http://www.w3.org/2000/svg" xmlns:xlink="http://www.w3.org/1999/xlink" x="0px" y="0px"
	 viewBox="0 0 128 128" enable-background="new 0 0 128 128" xml:space="preserve">
<linearGradient id="SVGID_1_" gradientUnits="userSpaceOnUse" x1="128" y1="128" x2="6.851245e-08" y2="2.202635e-07">
	<stop  offset="0" style="stop-color:#002C59"/>
	<stop  offset="1" style="stop-color:#5EBFBA"/>
</linearGradient>
<rect fill="url(#SVGID_1_)" width="128" height="128"/>
<path fill="#002C59" d="M64.9,13.5c-15.6,0-28.2,12.6-28.2,28.2c0,15.6,12.6,28.2,28.2,28.2s28.2-12.6,28.2-28.2
	C93.1,26.1,80.5,13.5,64.9,13.5z"/>
<linearGradient id="SVGID_2_" gradientUnits="userSpaceOnUse" x1="32.0159" y1="37.0259" x2="41.3559" y2="46.3659">
	<stop  offset="0" style="stop-color:#002C59"/>
	<stop  offset="1" style="stop-color:#5EBFBA"/>
</linearGradient>
<polygon fill="url(#SVGID_2_)" points="36.7,32.4 36.7,51 46,41.7 "/>
<rect x="36.7" y="41.7" fill="#5EBFBA" width="31.8" height="21.8"/>
<linearGradient id="SVGID_3_" gradientUnits="userSpaceOnUse" x1="26.742" y1="89.8961" x2="26.742" y2="67.1245" gradientTransform="matrix(-1 0 0 -1 77.484 110.7204)">
	<stop  offset="0" style="stop-color:#002C59"/>
	<stop  offset="1" style="stop-color:#5EBFBA"/>
</linearGradient>
<path fill="url(#SVGID_3_)" d="M55.5,43.6c0-8.9-3.6-16.9-9.4-22.8v22.8H55.5z"/>
<linearGradient id="SVGID_4_" gradientUnits="userSpaceOnUse" x1="32.1743" y1="89.8961" x2="32.1743" y2="67.1245" gradientTransform="matrix(1 0 0 -1 28 110.7204)">
	<stop  offset="0" style="stop-color:#002C59"/>
	<stop  offset="1" style="stop-color:#5EBFBA"/>
</linearGradient>
<path fill="url(#SVGID_4_)" d="M55.5,43.6c0-8.9,3.6-16.9,9.4-22.8v22.8H55.5z"/>
<linearGradient id="SVGID_5_" gradientUnits="userSpaceOnUse" x1="93.1067" y1="41.6571" x2="64.8989" y2="41.6571">
	<stop  offset="0" style="stop-color:#002C59"/>
	<stop  offset="1" style="stop-color:#5EBFBA"/>
</linearGradient>
<path fill="url(#SVGID_5_)" d="M79,27.6c-7.8,0-14.1,6.3-14.1,14.1c0,7.8,6.3,14.1,14.1,14.1s14.1-6.3,14.1-14.1
	C93.1,33.9,86.8,27.6,79,27.6z"/>
<linearGradient id="SVGID_6_" gradientUnits="userSpaceOnUse" x1="93.1067" y1="52.5838" x2="64.8989" y2="52.5838">
	<stop  offset="0" style="stop-color:#002C59"/>
	<stop  offset="1" style="stop-color:#5EBFBA"/>
</linearGradient>
<rect x="64.9" y="41.7" fill="url(#SVGID_6_)" width="28.2" height="21.9"/>
<linearGradient id="SVGID_7_" gradientUnits="userSpaceOnUse" x1="97.3195" y1="98.3651" x2="56.0933" y2="57.1389">
	<stop  offset="0" style="stop-color:#002C59"/>
	<stop  offset="1" style="stop-color:#5EBFBA"/>
</linearGradient>
<path fill="url(#SVGID_7_)" d="M76.7,48.6c-16.1,0-29.2,13-29.2,29.1c0,16.1,13.1,29.1,29.2,29.1s29.2-13,29.2-29.1
	C105.9,61.7,92.8,48.6,76.7,48.6z"/>
<rect y="92.7" fill="#002C59" width="128" height="35.3"/>
<linearGradient id="SVGID_8_" gradientUnits="userSpaceOnUse" x1="28.3928" y1="115.4268" x2="48.5326" y2="95.287">
	<stop  offset="0" style="stop-color:#002C59"/>
	<stop  offset="1" style="stop-color:#5EBFBA"/>
</linearGradient>
<path fill="url(#SVGID_8_)" d="M26.3,92.6c0,13.8,5.6,26.3,14.6,35.3V87.6L26.3,92.6z"/>
<linearGradient id="SVGID_9_" gradientUnits="userSpaceOnUse" x1="40.6028" y1="92.8836" x2="65.5493" y2="117.8301">
	<stop  offset="0" style="stop-color:#002C59"/>
	<stop  offset="1" style="stop-color:#5EBFBA"/>
</linearGradient>
<path fill="url(#SVGID_9_)" d="M40.9,92.6c0,13.8,5.6,26.3,14.6,35.3V87.6L40.9,92.6z"/>
<linearGradient id="SVGID_10_" gradientUnits="userSpaceOnUse" x1="66.7564" y1="127.9" x2="66.7564" y2="87.6204" gradientTransform="matrix(-1 0 0 1 129.5127 0)">
	<stop  offset="0" style="stop-color:#002C59"/>
	<stop  offset="1" style="stop-color:#5EBFBA"/>
</linearGradient>
<path fill="url(#SVGID_10_)" d="M70.1,92.6c0,13.8-5.6,26.3-14.6,35.3V87.6L70.1,92.6z"/>
<linearGradient id="SVGID_11_" gradientUnits="userSpaceOnUse" x1="88.97" y1="90.1165" x2="71.5284" y2="120.3262">
	<stop  offset="0" style="stop-color:#002C59"/>
	<stop  offset="1" style="stop-color:#5EBFBA"/>
</linearGradient>
<path fill="url(#SVGID_11_)" d="M70,92.6c0,13.8,5.6,26.3,14.6,35.3V87.6L70,92.6z"/>
<linearGradient id="SVGID_12_" gradientUnits="userSpaceOnUse" x1="84.6167" y1="78.1369" x2="26.2828" y2="78.1369">
	<stop  offset="0" style="stop-color:#002C59"/>
	<stop  offset="1" style="stop-color:#5EBFBA"/>
</linearGradient>
<polygon fill="url(#SVGID_12_)" points="84.6,92.7 55.4,63.6 26.3,92.7 "/>
<linearGradient id="SVGID_13_" gradientUnits="userSpaceOnUse" x1="66.2018" y1="41.657" x2="66.2018" y2="114.2488">
	<stop  offset="0" style="stop-color:#002C59"/>
	<stop  offset="1" style="stop-color:#69D1CA"/>
</linearGradient>
<path fill="url(#SVGID_13_)" d="M106.1,114.2V92.7c0-16.1-13.1-29.2-29.2-29.2v0H60c0-8.2,6.6-14.8,14.8-14.8H77
	c5.5,0,10.6,1.5,15,4.2c-2.5-6.6-8.9-11.3-16.4-11.3H64.9c-5.4,0-9.8,4.4-9.8,9.8c0-5.4-4.4-9.8-9.8-9.8h-8.5v6.3
	c7.4,0,13.5,6,13.5,13.5v2.1H36.7v0V53l-5.3,5.3c-3.4,3.4-5.2,8-5.2,12.5v22h0l29.2-29.2L106.1,114.2z"/>
<path fill="#002C59" d="M41.7,55.1c4.7,0,8.5,3.8,8.5,8.5h-8.5v0h-8.5L41.7,55.1z"/>
<path fill="#002C59" d="M68.5,55.1c-4.7,0-8.5,3.8-8.5,8.5h8.5v0H77L68.5,55.1z"/>
<polygon fill="#5EBFBA" points="47.8,71.2 55.4,78.8 63.1,71.2 "/>
<path fill="#002C59" d="M55.4,63.6c-4.2,0-7.6,3.4-7.6,7.6h15.3C63.1,67,59.7,63.6,55.4,63.6z"/>
<path fill="#002C59" d="M40.9,78.8h20.8c6.2,0,11.2,5,11.2,11.2h-32V78.8z"/>
<path fill="#5EBFBA" d="M67.3,80.3c-1.6-1-3.6-1.5-5.6-1.5h-1.9l7.5,7.5V80.3z"/>
<rect x="40.9" y="90" fill="#5EBFBA" width="32" height="2.7"/>
<polygon fill="#5EBFBA" points="59.8,78.8 48.4,78.8 47.7,78.8 40.9,78.8 48.4,86.3 48.4,82.1 59.8,82.1 "/>
</svg>
